<svg xmlns="http://www.w3.org/2000/svg" xmlns:xlink="http://www.w3.org/1999/xlink" viewBox="0 0 435.39 56.49"><defs><style>.cls-1,.cls-5,.cls-6,.cls-7{fill:none;}.cls-2{fill:#00427e;}.cls-3{fill:#000076;opacity:0.4;}.cls-3,.cls-4,.cls-5,.cls-6{isolation:isolate;}.cls-5,.cls-6{font-size:51.03px;stroke-linecap:round;stroke-linejoin:round;font-family:Leelawadee;stroke:url(#Jive_2);}.cls-6{letter-spacing:-0.04em;}.cls-7{stroke:#cec000;stroke-miterlimit:10;}.cls-8{fill:#cec000;}</style><pattern id="Jive_2" data-name="Jive 2" width="99.21" height="109.64" patternTransform="matrix(1, 0, 0, -1, 8.29, 249.48)" patternUnits="userSpaceOnUse" viewBox="0 0 99.21 109.64"><rect class="cls-1" width="99.21" height="109.64"/><rect class="cls-1" width="99.21" height="109.64"/><path class="cls-2" d="M73.78-34.7a.28.28,0,0,0,.25.21c12.91.14,24.75,3.27,34,11.52-8-5.56-22.94-7.52-31.53-3.62a.25.25,0,0,0-.14.29.26.26,0,0,0,.26.19c10.68-.29,19.28,3,26,9C95.7-16.72,90-12.36,90-7.3a.28.28,0,0,0,.21.25.26.26,0,0,0,.28-.15c1.12-2.48,4.75-3.78,8.58-2.87,4.18,1,7,4.18,6.3,7.16-.47,2-2.43,3.4-5,3.79a.26.26,0,0,0-.22.26.28.28,0,0,0,.23.24,16.74,16.74,0,0,0,3.32,0c6.49-.62,11.52-4.6,12-9.18,4.71.55,8.89,3.16,10.38,6.77a.26.26,0,0,0,.28.16.27.27,0,0,0,.21-.23c.38-4.75-1.26-7.84-5-10.86a21.82,21.82,0,0,0,17.25-.53.26.26,0,0,0,.15-.28.28.28,0,0,0-.24-.21A16.22,16.22,0,0,1,127-18c18.25,5.13,33.08-6.2,28-23a.26.26,0,0,0-.27-.18.26.26,0,0,0-.23.23c-.91,9.71-7.7,16.11-17.86,17.07A17.46,17.46,0,0,0,148.2-39.51a.25.25,0,0,0-.22-.27.25.25,0,0,0-.26.15,16.78,16.78,0,0,1-14.17,9.81c6.34-2.58,10.4-8.6,11.58-16.42a.27.27,0,0,0-.18-.28.25.25,0,0,0-.3.13c-3.87,7.58-12.16,12.79-22.45,8.81-10.62-4.11-15.27-16.39-16.3-25a.27.27,0,0,0-.24-.22.25.25,0,0,0-.26.19C101.67-47,109-30.7,122-23.81c-7.1-2-13.44-6.26-17-13.35-8.3-1-14-3.87-16.86-9.24a.26.26,0,0,0-.3-.13.27.27,0,0,0-.18.27c.19,2.11.94,6.33,4.08,8.27-7,0-12.51.89-17.8,3A.26.26,0,0,0,73.78-34.7Zm29.49-53.47a.23.23,0,0,1-.31,0,.26.26,0,0,1,0-.31c1.62-2.8.14-6.82-3-6.82-5.72,0-8.47,10.77-7.6,20.59,2.17-5.75,4-8,7.35-10.79a.24.24,0,0,1,.32,0,.26.26,0,0,1,.07.31A46.52,46.52,0,0,0,94.2-61.1c1.46-6,3.19-9.32,8.13-14.38a.24.24,0,0,1,.32,0,.25.25,0,0,1,.09.31,44.21,44.21,0,0,0-1,34.27.24.24,0,0,1-.06.28.26.26,0,0,1-.29,0c-5.2-2.55-8.26-4.23-12.75-10.39,1.36-7.4.23-11.05-3.17-17.2,3.94,9.92,1.84,23.9-8.19,29.6a.25.25,0,0,1-.32-.07A.26.26,0,0,1,77-39a17.93,17.93,0,0,0,4.16-17.93c1.53,10.39-7.6,19.12-17.78,19.12-9.6,0-16.15-7.51-15.61-14.94s5.44-11,9.67-12.5a.25.25,0,0,1,.3.1.27.27,0,0,1,0,.32c-5.7,5.68-6.45,16.48,3.51,19.75-5.86-5.06-3.69-16.83,5.69-17.73a.26.26,0,0,1,.27.17.28.28,0,0,1-.11.3,8,8,0,0,0-3.68,6.57c0,4.68,3.43,6.51,5.68,6.51,3.42,0,6.26-3.25,6.26-8.18,0-5.84-5.26-10.68-12-11.43s-12.78,2.15-15.75,6.46a.25.25,0,0,1-.31.08.25.25,0,0,1-.14-.29A17.14,17.14,0,0,1,68-75a17.26,17.26,0,0,1,6,2.89c-6.61-7.5-17-7.6-25.72.09A.27.27,0,0,1,48-72a.24.24,0,0,1-.07-.31c2.66-5.41,9.25-11.82,18.6-10.89C75-82.36,80-74.23,81-67.55c.55-8.52-1.4-14.53-8.76-20.14a.25.25,0,0,1-.07-.32.26.26,0,0,1,.3-.13c6.78,2,12.23,5.43,15,12.55,0-6.17-2.13-12.38-7.52-16.52a.24.24,0,0,1-.07-.31.24.24,0,0,1,.29-.13c3.46,1,6.17,2.49,8.14,5.18,1.31-11.1,6.52-17.69,12.53-17.69,4.12,0,7.2,3,7.2,7.87A11.34,11.34,0,0,1,103.27-88.17ZM202.5,3.45c-3.16,3.91-9.54,5.39-16.43,4a22.83,22.83,0,0,1-1.61,11.49.28.28,0,0,1-.3.13.26.26,0,0,1-.19-.25c.38-8.77-4.62-15.85-13.45-18.91,6.91,4.75,8.93,14.19,5.64,19.06a.25.25,0,0,1-.31.09.26.26,0,0,1-.15-.28c.37-2.06-.61-4.68-2.71-6.72-2.91-2.82-6.85-3.46-8.81-1.43s-1.2,6,1.7,8.76a9.55,9.55,0,0,0,3.45,2.18.25.25,0,0,1,.17.28.26.26,0,0,1-.23.22c-6.39.55-10.77-3.26-13.52-7.88s-7.57-8.41-13.21-7.67a.26.26,0,0,1-.27-.17.26.26,0,0,1,.11-.3,11,11,0,0,1,9.86-1c-5.79-4.91-14-7.74-21.84-5.23a.24.24,0,0,1-.29-.1.26.26,0,0,1,0-.31C136-7.21,147.8-7.34,155.22-2c-3-4.32-7.07-7.49-14.3-8.48a.29.29,0,0,1-.22-.23.26.26,0,0,1,.17-.26c8.29-3.08,16.6,0,23.44,8.21a26.35,26.35,0,0,0-14.76-14,.25.25,0,0,1-.17-.28.26.26,0,0,1,.25-.21c3.94-.08,7.48.86,12.26,3.57-3.5-5.69-2.74-15.64,2.37-22.26a.28.28,0,0,1,.31-.08.27.27,0,0,1,.14.28c-1.18,7.2,1.3,15.33,5.61,19.64a18.18,18.18,0,0,1,5.9-19.64.27.27,0,0,1,.26,0,.31.31,0,0,1,.16.21c1.23,9.41,11.77,19,20.6,19.77a.27.27,0,0,1,.23.24.25.25,0,0,1-.2.26,20.76,20.76,0,0,1-12.39-1,21.94,21.94,0,0,0,9.56,6.25.24.24,0,0,1,.17.27.25.25,0,0,1-.23.22,20.36,20.36,0,0,1-12.73-3.54A31.44,31.44,0,0,0,201.08.39a.25.25,0,0,1,.19.26.24.24,0,0,1-.22.24C189.13,2.19,179.3-2.43,172.83-11c1.65,4.9,6.36,9.76,12.94,12.62,5.85,2.55,11.85,3,16.42,1.51a.27.27,0,0,1,.29.1A.25.25,0,0,1,202.5,3.45ZM149.59-72.12c4.81,10.49,4.47,18.69.6,29a.25.25,0,0,1-.29.16.24.24,0,0,1-.2-.26c.62-12.62-2.83-21.65-10.3-27.8,8.25,9.85,4.35,29.56-8.83,29.56-9.58,0-17.51-8-19.45-17.53a.25.25,0,0,1,.16-.29.25.25,0,0,1,.31.11c2.84,4.76,7.4,7.85,12.45,7.85,8.14,0,10.54-6.47,10.54-11,0-6.18-4.92-11.34-8.7-11.34a4.93,4.93,0,0,0-5,4.86v.07a8.86,8.86,0,0,0,6.37,8.16.26.26,0,0,1,.18.28.25.25,0,0,1-.25.22,10.48,10.48,0,0,1-9.63-5.57,17.4,17.4,0,0,0,.64,7.72.25.25,0,0,1-.12.3.25.25,0,0,1-.32-.07c-7.36-9.39-3.84-25.62,2-32.35-5.53,4-10.42,12.63-10.34,24.39a.26.26,0,0,1-.21.25.24.24,0,0,1-.28-.15c-4.11-10.26-1.93-29.25,9.28-39.86a20.13,20.13,0,0,0-9.12.7.27.27,0,0,1-.3-.12.25.25,0,0,1,.06-.32c4.09-3.46,9.81-4.54,15.26-4.54-4.69,5.5-3.13,16.55,4.36,16.55,5.35,0,7.77-8.3,3.64-12.78a.26.26,0,0,1,0-.31.25.25,0,0,1,.3-.1c4.78,1.65,9.94,5.79,9.94,11,0,5-4.81,9.39-11.8,9,8.82,2.5,18-.27,22.88-6.26a.25.25,0,0,1,.31-.06.25.25,0,0,1,.14.29c-2.8,10.71-12,15.2-23.44,13.7,9.28,3.76,23.25.48,29.42-7.31a.26.26,0,0,1,.31-.07.27.27,0,0,1,.14.28C158.85-79,155.35-74.07,149.59-72.12Z"/><path class="cls-3" d="M176-52.83a.26.26,0,0,0-.25-.21c-12.91-.14-24.75-3.27-34-11.52,8,5.56,22.94,7.51,31.53,3.62a.25.25,0,0,0,.14-.29.28.28,0,0,0-.26-.19c-10.68.29-19.28-3-26-9,6.87-.42,12.57-4.74,12.56-9.84a.28.28,0,0,0-.21-.25.26.26,0,0,0-.28.15c-1.12,2.48-4.75,3.78-8.58,2.88-4.18-1-7-4.19-6.3-7.17.47-2,2.43-3.4,5-3.79a.25.25,0,0,0,.25-.25.25.25,0,0,0-.25-.25,16.74,16.74,0,0,0-3.32,0c-6.49.62-11.51,4.6-11.95,9.18-4.71-.55-8.88-3.16-10.38-6.77a.25.25,0,0,0-.31-.17.25.25,0,0,0-.18.24c-.37,4.75,1.26,7.84,5,10.86a21.82,21.82,0,0,0-17.25.53.27.27,0,0,0-.15.29.28.28,0,0,0,.25.2,16.26,16.26,0,0,1,11.73,5.07c-18.26-5.13-33.09,6.2-28,23.05a.26.26,0,0,0,.27.18.26.26,0,0,0,.23-.23c.91-9.71,7.7-16.11,17.86-17.07A17.46,17.46,0,0,0,101.59-48a.25.25,0,0,0,.19.26.27.27,0,0,0,.3-.14,16.74,16.74,0,0,1,14.16-9.81c-6.34,2.58-10.4,8.6-11.57,16.42a.25.25,0,0,0,.17.28.25.25,0,0,0,.3-.13C109-48.75,117.3-54,127.59-50c10.62,4.11,15.27,16.39,16.3,25a.29.29,0,0,0,.24.23.27.27,0,0,0,.26-.2c3.72-15.69-3.58-31.95-16.63-38.84,7.09,2,13.44,6.26,17,13.35,8.3,1,14,3.87,16.86,9.24a.26.26,0,0,0,.3.13.27.27,0,0,0,.18-.27c-.18-2.11-.94-6.33-4.08-8.27,7,0,12.51-.89,17.8-3A.26.26,0,0,0,176-52.83ZM146.49.64a.27.27,0,0,1,.32,0,.27.27,0,0,1,0,.32c-1.62,2.79-.14,6.81,3.05,6.81,5.72,0,8.47-10.77,7.6-20.59-2.16,5.75-4,8-7.35,10.79a.24.24,0,0,1-.32,0,.22.22,0,0,1-.06-.31,46.63,46.63,0,0,0,5.89-24.09c-1.46,6-3.19,9.32-8.12,14.38a.26.26,0,0,1-.33,0,.25.25,0,0,1-.09-.31A44.23,44.23,0,0,0,148-46.62a.28.28,0,0,1,.06-.29.3.3,0,0,1,.29,0c5.2,2.55,8.26,4.23,12.75,10.39-1.36,7.4-.23,11.05,3.17,17.19-3.94-9.91-1.84-23.89,8.19-29.59a.25.25,0,0,1,.32.07.26.26,0,0,1,0,.33,17.93,17.93,0,0,0-4.16,17.93c-1.53-10.39,7.6-19.12,17.78-19.12,9.6,0,16.15,7.51,15.61,14.94s-5.44,11-9.67,12.5a.25.25,0,0,1-.3-.1.26.26,0,0,1,0-.31c5.61-5.7,6.38-16.5-3.58-19.76,5.86,5,3.69,16.82-5.69,17.72a.24.24,0,0,1-.26-.17.26.26,0,0,1,.1-.3,8,8,0,0,0,3.68-6.57c0-4.67-3.42-6.51-5.68-6.51-3.42,0-6.26,3.25-6.26,8.18,0,5.84,5.26,10.68,12,11.43s12.78-2.15,15.75-6.46a.26.26,0,0,1,.32-.08.25.25,0,0,1,.14.29,17.14,17.14,0,0,1-20.86,12.37,16.9,16.9,0,0,1-5.95-2.82c6.61,7.5,17,7.6,25.72-.09a.27.27,0,0,1,.32,0,.25.25,0,0,1,.07.32c-2.66,5.4-9.25,11.81-18.6,10.88-8.56-.86-13.52-9-14.52-15.69-.56,8.52,1.39,14.53,8.75,20.14a.25.25,0,0,1,.07.32.26.26,0,0,1-.3.13c-6.78-2-12.23-5.43-15-12.54,0,6.16,2.13,12.37,7.52,16.51a.25.25,0,0,1-.22.44c-3.45-1-6.17-2.49-8.14-5.18-1.31,11.1-6.52,17.69-12.53,17.69-4.12,0-7.2-3-7.2-7.87A11.34,11.34,0,0,1,146.49.64ZM47.26-91c3.16-3.91,9.54-5.39,16.43-4a22.7,22.7,0,0,1,1.62-11.49.27.27,0,0,1,.29-.13.26.26,0,0,1,.19.26c-.37,8.76,4.62,15.84,13.45,18.9-6.91-4.75-8.93-14.19-5.64-19.06a.25.25,0,0,1,.31-.09.26.26,0,0,1,.15.28c-.37,2.06.61,4.68,2.71,6.72,2.91,2.82,6.85,3.45,8.82,1.43s1.19-6-1.71-8.76a9.55,9.55,0,0,0-3.45-2.18.28.28,0,0,1-.17-.28.26.26,0,0,1,.23-.22c6.39-.55,10.77,3.26,13.52,7.88s7.57,8.41,13.21,7.67a.26.26,0,0,1,.27.17.24.24,0,0,1-.11.3,11,11,0,0,1-9.86,1c5.79,4.91,14,7.74,21.84,5.23a.27.27,0,0,1,.29.1.26.26,0,0,1,0,.31c-5.91,6.57-17.7,6.7-25.12,1.37,3,4.32,7.07,7.49,14.3,8.48a.29.29,0,0,1,.22.23.26.26,0,0,1-.17.26c-8.29,3.08-16.6,0-23.44-8.21a26.35,26.35,0,0,0,14.76,14,.25.25,0,0,1,.17.28.26.26,0,0,1-.25.21c-3.94.08-7.48-.86-12.26-3.57,3.5,5.69,2.74,15.64-2.37,22.26a.26.26,0,0,1-.3.08.26.26,0,0,1-.15-.28c1.18-7.2-1.3-15.33-5.61-19.64a18.18,18.18,0,0,1-5.9,19.64.27.27,0,0,1-.26.05.29.29,0,0,1-.16-.2c-1.23-9.42-11.77-19-20.6-19.78a.25.25,0,0,1-.25-.25.25.25,0,0,1,.25-.25,20.76,20.76,0,0,1,12.39,1,21.94,21.94,0,0,0-9.56-6.25.24.24,0,0,1-.17-.27.25.25,0,0,1,.23-.22,20.36,20.36,0,0,1,12.68,3.59A31.44,31.44,0,0,0,48.65-87.87a.25.25,0,0,1-.19-.26.27.27,0,0,1,.22-.24C60.6-89.67,70.43-85,76.9-76.45c-1.65-4.9-6.36-9.76-12.94-12.62-5.85-2.54-11.85-3-16.42-1.51a.27.27,0,0,1-.29-.1A.26.26,0,0,1,47.26-91Zm52.91,75.57c-4.81-10.49-4.47-18.68-.6-29a.26.26,0,0,1,.34-.14.26.26,0,0,1,.16.24c-.63,12.62,2.82,21.65,10.29,27.8-8.25-9.85-4.35-29.56,8.83-29.56,9.58,0,17.51,8,19.45,17.53a.25.25,0,0,1-.16.29.24.24,0,0,1-.3-.11c-2.85-4.76-7.41-7.85-12.46-7.85-8.14,0-10.54,6.46-10.54,11,0,6.18,4.92,11.34,8.7,11.34a4.94,4.94,0,0,0,5.05-4.83v-.1A8.88,8.88,0,0,0,122.55-27a.25.25,0,0,1-.18-.28.26.26,0,0,1,.25-.22,10.45,10.45,0,0,1,9.63,5.57,17.4,17.4,0,0,0-.64-7.72.25.25,0,0,1,.12-.3.25.25,0,0,1,.32.07c7.36,9.39,3.84,25.62-2,32.35,5.53-4,10.42-12.63,10.34-24.39a.26.26,0,0,1,.21-.25.26.26,0,0,1,.28.15c4.11,10.26,1.93,29.25-9.28,39.86a20.13,20.13,0,0,0,9.12-.7.27.27,0,0,1,.3.12.25.25,0,0,1-.06.32c-4.09,3.45-9.81,4.54-15.26,4.54,4.7-5.5,3.14-16.55-4.35-16.55-5.36,0-7.78,8.3-3.65,12.78a.26.26,0,0,1,0,.31.25.25,0,0,1-.3.1c-4.77-1.66-9.94-5.79-9.94-11,0-5,4.81-9.39,11.8-9-8.82-2.5-18,.27-22.88,6.26a.25.25,0,0,1-.31.06.23.23,0,0,1-.13-.29c2.79-10.71,12-15.2,23.44-13.7C110.09-12.68,96.13-9.41,90-1.61a.26.26,0,0,1-.31.07.27.27,0,0,1-.14-.28C90.92-8.51,94.41-13.45,100.17-15.41Z"/><path class="cls-2" d="M-25.43-34.7a.26.26,0,0,0,.25.21c12.9.14,24.75,3.27,34,11.52-8-5.56-22.94-7.52-31.53-3.62a.25.25,0,0,0-.14.29.26.26,0,0,0,.25.19c10.68-.29,19.28,3,26,9-6.87.42-12.58,4.74-12.56,9.84A.27.27,0,0,0-9-7a.27.27,0,0,0,.29-.15C-7.55-9.65-3.93-10.95-.09-10c4.18,1,7,4.18,6.3,7.16C5.74-.88,3.77.52,1.26.91a.25.25,0,0,0,0,.5,16.74,16.74,0,0,0,3.32,0c6.49-.62,11.51-4.6,12-9.18C21.29-7.22,25.46-4.61,27-1a.24.24,0,0,0,.27.16.26.26,0,0,0,.22-.23c.37-4.75-1.26-7.84-5-10.86a21.85,21.85,0,0,0,17.26-.53.25.25,0,0,0,.11-.35.26.26,0,0,0-.21-.14A16.26,16.26,0,0,1,27.88-18c18.26,5.13,33.09-6.2,28-23a.26.26,0,0,0-.27-.18.26.26,0,0,0-.23.23c-.92,9.71-7.7,16.11-17.86,17.07A17.45,17.45,0,0,0,49-39.51a.28.28,0,0,0-.19-.26.26.26,0,0,0-.3.14,16.76,16.76,0,0,1-14.16,9.81c6.34-2.58,10.4-8.6,11.57-16.42a.25.25,0,0,0-.17-.28.25.25,0,0,0-.3.13C41.58-38.81,33.29-33.6,23-37.58,12.38-41.69,7.72-54,6.7-62.58a.27.27,0,0,0-.24-.22.25.25,0,0,0-.26.19c-3.72,15.69,3.58,32,16.63,38.84-7.09-2-13.44-6.26-17-13.35-8.3-1-14-3.87-16.86-9.24a.26.26,0,0,0-.3-.13.27.27,0,0,0-.18.27c.18,2.11.94,6.33,4.07,8.27-7,0-12.5.89-17.79,3A.25.25,0,0,0-25.43-34.7ZM4.06-88.17a.25.25,0,0,1-.35-.06.26.26,0,0,1,0-.27c1.62-2.8.14-6.82-3.05-6.82-5.72,0-8.47,10.77-7.6,20.59,2.16-5.75,4-8,7.35-10.79a.24.24,0,0,1,.32,0,.25.25,0,0,1,.06.31A46.63,46.63,0,0,0-5.11-61.12c1.46-6,3.19-9.32,8.12-14.38a.26.26,0,0,1,.33,0,.25.25,0,0,1,.09.31,44.21,44.21,0,0,0-1,34.27.26.26,0,0,1-.06.28.26.26,0,0,1-.29,0C-3.12-43.19-6.18-44.87-10.67-51c1.36-7.4.23-11-3.17-17.2C-9.91-58.31-12-44.33-22-38.63a.26.26,0,0,1-.33-.07.26.26,0,0,1,0-.33A17.93,17.93,0,0,0-18.2-57C-16.67-46.57-25.8-37.84-36-37.84c-9.6,0-16.15-7.51-15.61-14.94s5.44-11,9.67-12.5a.25.25,0,0,1,.3.1.27.27,0,0,1,0,.32C-47.19-59.16-48-48.36-38-45.09c-5.86-5.06-3.69-16.83,5.69-17.73a.24.24,0,0,1,.26.17.25.25,0,0,1-.1.3,8,8,0,0,0-3.68,6.57c0,4.68,3.42,6.51,5.68,6.51,3.42,0,6.26-3.25,6.26-8.18,0-5.84-5.26-10.68-12-11.43s-12.78,2.15-15.75,6.46a.26.26,0,0,1-.36.06.25.25,0,0,1-.14-.29A17.16,17.16,0,0,1-31.29-75a17.3,17.3,0,0,1,6,2.89c-6.61-7.5-17-7.6-25.72.09a.27.27,0,0,1-.32,0,.25.25,0,0,1-.08-.31c2.67-5.41,9.26-11.82,18.61-10.89,8.56.86,13.52,9,14.52,15.69.56-8.52-1.39-14.53-8.75-20.14a.25.25,0,0,1-.07-.32.24.24,0,0,1,.29-.13c6.79,2,12.23,5.43,15.05,12.55,0-6.17-2.14-12.38-7.52-16.52a.25.25,0,0,1-.08-.31.26.26,0,0,1,.3-.13c3.45,1,6.17,2.49,8.14,5.18,1.31-11.1,6.52-17.69,12.52-17.69,4.13,0,7.21,3,7.21,7.87A11.37,11.37,0,0,1,4.06-88.17ZM103.29,3.45c-3.17,3.91-9.54,5.39-16.44,4a22.72,22.72,0,0,1-1.61,11.49.27.27,0,0,1-.29.13.23.23,0,0,1-.19-.25C85.13,10.05,80.14,3,71.31-.09,78.22,4.64,80.23,14.09,77,19a.25.25,0,0,1-.31.09.26.26,0,0,1-.15-.28c.37-2.06-.61-4.68-2.72-6.72C70.92,9.23,67,8.59,65,10.62s-1.19,6,1.71,8.76a9.55,9.55,0,0,0,3.45,2.18.28.28,0,0,1,.17.28.26.26,0,0,1-.23.22c-6.39.55-10.77-3.26-13.52-7.88S49,5.77,43.38,6.51a.26.26,0,0,1-.27-.17.24.24,0,0,1,.11-.3A11,11,0,0,1,53,5C47.2.08,39-2.75,31.16-.24a.24.24,0,0,1-.29-.1.26.26,0,0,1,0-.31C36.78-7.22,48.56-7.35,56-2c-3-4.32-7.06-7.49-14.29-8.48a.29.29,0,0,1-.22-.23.26.26,0,0,1,.17-.26c8.29-3.08,16.6,0,23.44,8.21a26.37,26.37,0,0,0-14.77-14,.26.26,0,0,1-.16-.28.26.26,0,0,1,.25-.21c3.94-.08,7.48.86,12.26,3.57C59.2-19.36,60-29.36,65.08-36a.26.26,0,0,1,.3-.08.26.26,0,0,1,.15.28c-1.18,7.2,1.3,15.33,5.61,19.64A18.19,18.19,0,0,1,77-35.77a.25.25,0,0,1,.25,0,.3.3,0,0,1,.17.21c1.23,9.41,11.76,19,20.6,19.77a.25.25,0,0,1,.25.25.25.25,0,0,1-.25.25,20.76,20.76,0,0,1-12.39-1,21.94,21.94,0,0,0,9.56,6.25.25.25,0,0,1,.17.31.25.25,0,0,1-.23.18A20.36,20.36,0,0,1,82.4-13.14,31.45,31.45,0,0,0,101.82.37a.25.25,0,0,1,0,.5C89.9,2.17,80.07-2.45,73.59-11c1.65,4.9,6.37,9.76,13,12.62C92.44,4.12,98.44,4.52,103,3.08a.27.27,0,0,1,.29.1A.26.26,0,0,1,103.29,3.45ZM50.38-72.12c4.81,10.49,4.47,18.69.59,29a.24.24,0,0,1-.28.16.24.24,0,0,1-.21-.26c.62-12.62-2.82-21.65-10.3-27.8,8.25,9.85,4.36,29.56-8.82,29.56-9.58,0-17.51-8-19.45-17.53a.27.27,0,0,1,.15-.29.24.24,0,0,1,.31.11c2.85,4.76,7.41,7.85,12.46,7.85,8.14,0,10.54-6.47,10.54-11,0-6.18-4.92-11.34-8.71-11.34a4.94,4.94,0,0,0-5,4.88v0A8.87,8.87,0,0,0,28-60.52a.26.26,0,0,1,.18.28.25.25,0,0,1-.25.22,10.45,10.45,0,0,1-9.63-5.57,17.4,17.4,0,0,0,.64,7.72.26.26,0,0,1-.13.3.24.24,0,0,1-.31-.07C11.14-67,14.66-83.26,20.5-90,15-86,10.08-77.36,10.16-65.6a.26.26,0,0,1-.21.25.24.24,0,0,1-.28-.15c-4.13-10.26-1.95-29.25,9.26-39.86a20.17,20.17,0,0,0-9.13.7.26.26,0,0,1-.31-.19.25.25,0,0,1,.07-.25c4.1-3.46,9.82-4.54,15.27-4.54-4.7,5.5-3.14,16.55,4.36,16.55,5.34,0,7.77-8.3,3.64-12.78a.24.24,0,0,1,0-.35.23.23,0,0,1,.27-.06c4.78,1.65,9.95,5.79,9.95,11,0,5-4.81,9.39-11.8,9,8.82,2.5,18-.27,22.88-6.26a.26.26,0,0,1,.35-.07.27.27,0,0,1,.09.3c-2.79,10.71-12,15.2-23.44,13.7,9.28,3.76,23.25.48,29.43-7.31a.25.25,0,0,1,.3-.07.24.24,0,0,1,.14.28C59.63-79,56.14-74.07,50.38-72.12Z"/><path class="cls-3" d="M76.76-52.83a.25.25,0,0,0-.24-.21c-12.91-.14-24.76-3.27-34-11.52C50.52-59,65.46-57,74-60.94a.24.24,0,0,0,.13-.33.24.24,0,0,0-.24-.15c-10.68.29-19.28-3-26-9,6.87-.42,12.57-4.74,12.55-9.84a.26.26,0,0,0-.2-.25.26.26,0,0,0-.28.15c-1.12,2.48-4.75,3.78-8.58,2.88-4.18-1-7-4.19-6.3-7.17.47-2,2.43-3.4,5-3.79a.26.26,0,0,0,.21-.25.25.25,0,0,0-.23-.25,18.3,18.3,0,0,0-3.31,0c-6.49.62-11.52,4.6-12,9.18-4.71-.55-8.89-3.16-10.38-6.77a.28.28,0,0,0-.28-.16.27.27,0,0,0-.21.23c-.38,4.75,1.26,7.84,5,10.86a21.85,21.85,0,0,0-17.26.53.25.25,0,0,0-.11.35.26.26,0,0,0,.21.14A16.3,16.3,0,0,1,23.5-69.51c-18.26-5.13-33.09,6.2-28,23.05a.26.26,0,0,0,.27.18A.25.25,0,0,0-4-46.51c.92-9.71,7.71-16.11,17.87-17.07A17.45,17.45,0,0,0,2.36-48a.25.25,0,0,0,.22.27.25.25,0,0,0,.26-.15A16.76,16.76,0,0,1,17-57.71c-6.33,2.58-10.39,8.6-11.57,16.42a.26.26,0,0,0,.18.28.26.26,0,0,0,.3-.13c3.86-7.58,12.16-12.79,22.45-8.81,10.61,4.11,15.27,16.39,16.3,25a.29.29,0,0,0,.24.23.27.27,0,0,0,.26-.2c3.72-15.69-3.58-31.95-16.64-38.84,7.1,2,13.44,6.26,17,13.35,8.29,1,14,3.87,16.86,9.24a.24.24,0,0,0,.29.13.28.28,0,0,0,.19-.27c-.19-2.11-1-6.33-4.08-8.27,7,0,12.51-.89,17.8-3A.24.24,0,0,0,76.76-52.83ZM47.28.64a.23.23,0,0,1,.31,0,.27.27,0,0,1,0,.32c-1.62,2.79-.14,6.81,3,6.81,5.72,0,8.47-10.77,7.6-20.59-2.17,5.75-4,8-7.35,10.79a.24.24,0,0,1-.32,0,.24.24,0,0,1-.07-.31,46.52,46.52,0,0,0,5.9-24.09c-1.46,6-3.2,9.32-8.13,14.38a.24.24,0,0,1-.32,0,.25.25,0,0,1-.09-.31,44.18,44.18,0,0,0,1-34.26.26.26,0,0,1,.06-.29.3.3,0,0,1,.29,0c5.2,2.55,8.26,4.23,12.75,10.39-1.36,7.4-.23,11.05,3.17,17.19-3.94-9.91-1.84-23.89,8.19-29.59a.25.25,0,0,1,.32.07.26.26,0,0,1,0,.33,17.89,17.89,0,0,0-4.16,17.93C67.9-41,77-49.71,87.21-49.71c9.6,0,16.15,7.51,15.61,14.94s-5.45,11-9.67,12.5a.25.25,0,0,1-.3-.1.23.23,0,0,1,0-.31c5.61-5.7,6.38-16.5-3.58-19.76,5.86,5,3.69,16.82-5.69,17.72a.25.25,0,0,1-.3-.19.26.26,0,0,1,.14-.28,8,8,0,0,0,3.67-6.57c0-4.67-3.42-6.51-5.67-6.51-3.42,0-6.26,3.25-6.26,8.18,0,5.84,5.26,10.68,12,11.43S100-20.8,103-25.11a.25.25,0,0,1,.34-.08.24.24,0,0,1,.11.29A17.16,17.16,0,0,1,82.62-12.47a17.3,17.3,0,0,1-6.06-2.89c6.62,7.5,17,7.6,25.73-.09a.27.27,0,0,1,.32,0,.25.25,0,0,1,.07.32C100-9.73,93.43-3.32,84.08-4.25c-8.56-.86-13.52-9-14.53-15.69C69-11.42,71-5.41,78.31.2a.28.28,0,0,1,.07.32.26.26,0,0,1-.3.13c-6.78-2-12.23-5.43-15-12.54,0,6.16,2.14,12.37,7.53,16.51a.24.24,0,0,1,.07.31.24.24,0,0,1-.29.13c-3.46-1-6.18-2.49-8.14-5.18C60.94,11,55.73,17.57,49.72,17.57c-4.12,0-7.2-3-7.2-7.87A11.37,11.37,0,0,1,47.28.64ZM-51.95-91c3.16-3.91,9.54-5.39,16.43-4a22.83,22.83,0,0,1,1.61-11.49.28.28,0,0,1,.29-.13.27.27,0,0,1,.2.26C-33.8-97.58-28.8-90.5-20-87.44c-6.91-4.75-8.93-14.19-5.64-19.06a.24.24,0,0,1,.3-.09.26.26,0,0,1,.16.28c-.37,2.06.6,4.68,2.71,6.72,2.91,2.82,6.85,3.45,8.81,1.43s1.2-6-1.7-8.76a9.68,9.68,0,0,0-3.45-2.18.25.25,0,0,1-.17-.28.25.25,0,0,1,.23-.22c6.39-.55,10.77,3.26,13.51,7.88S2.36-93.3,8-94a.26.26,0,0,1,.27.17.26.26,0,0,1-.11.3,11,11,0,0,1-9.86,1c5.79,4.91,14,7.74,21.84,5.23a.27.27,0,0,1,.29.1.26.26,0,0,1,0,.31C14.5-80.36,2.72-80.18-4.7-85.51-1.7-81.19,2.37-78,9.6-77a.27.27,0,0,1,.21.23.24.24,0,0,1-.16.26c-8.29,3.08-16.6,0-23.45-8.21A26.41,26.41,0,0,0,1-70.74a.24.24,0,0,1,.16.28.25.25,0,0,1-.24.21c-3.94.08-7.49-.86-12.27-3.57,3.51,5.69,2.74,15.64-2.36,22.26a.28.28,0,0,1-.31.08.26.26,0,0,1-.15-.28C-13-59-15.46-67.09-19.78-71.4A18.15,18.15,0,0,1-25.7-51.76a.27.27,0,0,1-.26,0,.24.24,0,0,1-.16-.2c-1.23-9.42-11.77-19-20.6-19.78a.24.24,0,0,1-.23-.24.25.25,0,0,1,.2-.26,20.74,20.74,0,0,1,12.38,1,21.85,21.85,0,0,0-9.55-6.25.25.25,0,0,1-.18-.27.27.27,0,0,1,.24-.22,20.38,20.38,0,0,1,12.73,3.57A31.44,31.44,0,0,0-50.56-87.87a.27.27,0,0,1-.2-.26.29.29,0,0,1,.23-.24c11.92-1.3,21.75,3.32,28.22,11.92-1.65-4.9-6.36-9.76-12.94-12.62-5.85-2.54-11.85-3-16.43-1.51a.25.25,0,0,1-.28-.1A.26.26,0,0,1-51.95-91ZM1-15.41c-4.8-10.49-4.46-18.68-.59-29a.25.25,0,0,1,.29-.16.24.24,0,0,1,.2.26C.28-31.74,3.73-22.71,11.2-16.56,2.9-26.41,6.8-46.12,20-46.12c9.59,0,17.52,8,19.46,17.53a.25.25,0,0,1-.16.29.25.25,0,0,1-.31-.11c-2.84-4.76-7.4-7.85-12.45-7.85C18.4-36.26,16-29.8,16-25.26c0,6.18,4.93,11.34,8.71,11.34a4.93,4.93,0,0,0,5-4.86v-.07A8.87,8.87,0,0,0,23.33-27a.25.25,0,0,1-.18-.28.26.26,0,0,1,.25-.22A10.47,10.47,0,0,1,33-21.94a17.4,17.4,0,0,0-.64-7.72.24.24,0,0,1,.12-.3.25.25,0,0,1,.32.07c7.36,9.39,3.83,25.62-2,32.35,5.53-4,10.42-12.63,10.34-24.39a.25.25,0,0,1,.2-.25.27.27,0,0,1,.29.15c4.11,10.26,1.93,29.25-9.28,39.86a20.13,20.13,0,0,0,9.12-.7.27.27,0,0,1,.3.12.25.25,0,0,1-.06.32C37.62,21,31.9,22.11,26.45,22.11c4.69-5.5,3.13-16.55-4.36-16.55-5.35,0-7.78,8.3-3.65,12.78a.24.24,0,0,1,0,.35.23.23,0,0,1-.27.06c-4.78-1.66-9.94-5.79-9.94-11,0-5,4.81-9.39,11.8-9C11.21-3.75,2-1-2.85,5a.25.25,0,0,1-.31.06.25.25,0,0,1-.14-.29c2.79-10.71,12-15.2,23.44-13.7C10.86-12.68-3.11-9.41-9.28-1.61a.26.26,0,0,1-.31.07.27.27,0,0,1-.14-.28C-8.3-8.51-4.81-13.45,1-15.41Z"/><path class="cls-2" d="M-124.64-34.7a.26.26,0,0,0,.25.21c12.9.14,24.75,3.27,34,11.52-8-5.56-23-7.52-31.53-3.62a.25.25,0,0,0-.14.29.23.23,0,0,0,.25.19c10.68-.29,19.28,3,26,9-6.87.42-12.58,4.74-12.56,9.84a.26.26,0,0,0,.2.25.26.26,0,0,0,.28-.15c1.12-2.48,4.75-3.78,8.59-2.87,4.18,1,7,4.18,6.3,7.16-.47,2-2.44,3.4-5,3.79a.26.26,0,0,0-.22.26.24.24,0,0,0,.23.24,16.74,16.74,0,0,0,3.32,0c6.49-.62,11.51-4.6,12-9.18,4.71.55,8.88,3.16,10.37,6.77A.26.26,0,0,0-72-.84a.25.25,0,0,0,.21-.23c.38-4.75-1.25-7.84-5-10.86a21.85,21.85,0,0,0,17.26-.53.27.27,0,0,0,.14-.28.26.26,0,0,0-.24-.21A16.22,16.22,0,0,1-71.33-18c18.25,5.13,33.09-6.2,28-23a.24.24,0,0,0-.26-.18.26.26,0,0,0-.23.23c-.92,9.71-7.7,16.11-17.86,17.07A17.45,17.45,0,0,0-50.13-39.48a.25.25,0,0,0-.19-.26.25.25,0,0,0-.29.14,16.76,16.76,0,0,1-14.16,9.81c6.33-2.58,10.4-8.6,11.57-16.42a.25.25,0,0,0-.17-.28.26.26,0,0,0-.31.13c-3.86,7.58-12.15,12.79-22.44,8.81-10.62-4.11-15.28-16.39-16.31-25a.24.24,0,0,0-.24-.22.25.25,0,0,0-.26.19c-3.72,15.69,3.59,32,16.64,38.84-7.1-2-13.44-6.26-17-13.35-8.29-1-14-3.87-16.85-9.24a.26.26,0,0,0-.3-.13.26.26,0,0,0-.18.27c.18,2.11.94,6.33,4.07,8.27-7,0-12.5.89-17.8,3A.26.26,0,0,0-124.64-34.7Zm29.49-53.47a.27.27,0,0,1-.32,0,.26.26,0,0,1,0-.31c1.62-2.8.14-6.82-3-6.82-5.72,0-8.47,10.77-7.59,20.59,2.16-5.75,4-8,7.35-10.79a.24.24,0,0,1,.32,0,.25.25,0,0,1,.06.31,46.52,46.52,0,0,0-5.9,24.09c1.47-6,3.2-9.32,8.13-14.38a.26.26,0,0,1,.33,0,.25.25,0,0,1,.08.31,44.2,44.2,0,0,0-.94,34.27.26.26,0,0,1-.07.28.24.24,0,0,1-.28,0c-5.21-2.55-8.27-4.23-12.75-10.39,1.35-7.4.22-11.05-3.18-17.2,3.94,9.92,1.85,23.9-8.18,29.6a.26.26,0,0,1-.33-.07.26.26,0,0,1,0-.33,17.89,17.89,0,0,0,4.15-17.93c1.53,10.39-7.59,19.12-17.78,19.12-9.59,0-16.15-7.51-15.6-14.94A13.82,13.82,0,0,1-141-65.26a.26.26,0,0,1,.3.1.27.27,0,0,1,0,.32c-5.61,5.69-6.37,16.49,3.59,19.76-5.86-5.06-3.69-16.83,5.69-17.73a.26.26,0,0,1,.26.17.25.25,0,0,1-.1.3,8,8,0,0,0-3.68,6.57c0,4.68,3.42,6.51,5.67,6.51,3.43,0,6.26-3.25,6.26-8.18,0-5.84-5.26-10.68-12-11.43s-12.78,2.15-15.75,6.46a.25.25,0,0,1-.31.08.25.25,0,0,1-.14-.29A17.16,17.16,0,0,1-130.34-75a17.3,17.3,0,0,1,6,2.89c-6.62-7.5-17-7.6-25.72.09a.26.26,0,0,1-.33,0,.26.26,0,0,1-.07-.31c2.67-5.41,9.25-11.82,18.61-10.89,8.55.86,13.52,9,14.52,15.69.56-8.52-1.39-14.53-8.75-20.14a.27.27,0,0,1-.08-.32.26.26,0,0,1,.3-.13c6.79,2,12.23,5.43,15,12.55,0-6.17-2.14-12.38-7.53-16.52a.26.26,0,0,1-.07-.31.26.26,0,0,1,.3-.13c3.45,1,6.17,2.49,8.14,5.18,1.31-11.1,6.52-17.69,12.52-17.69,4.13,0,7.21,3,7.21,7.87A11.34,11.34,0,0,1-95.15-88.17ZM4.07,3.45c-3.16,3.91-9.54,5.39-16.43,4A22.68,22.68,0,0,1-14,18.93a.27.27,0,0,1-.29.13.23.23,0,0,1-.19-.25C-14.11,10-19.11,3-27.93-.1-21,4.64-19,14.09-22.26,19a.25.25,0,0,1-.31.09.26.26,0,0,1-.16-.28c.38-2.06-.6-4.68-2.71-6.72-2.91-2.82-6.85-3.46-8.81-1.43s-1.2,6,1.71,8.76a9.55,9.55,0,0,0,3.45,2.18.26.26,0,0,1,.16.28.25.25,0,0,1-.23.22c-6.38.55-10.77-3.26-13.51-7.88s-7.57-8.41-13.21-7.67a.28.28,0,0,1-.28-.17A.28.28,0,0,1-56,6a11,11,0,0,1,9.87-1C-52,.08-60.18-2.75-68-.24a.24.24,0,0,1-.29-.1.26.26,0,0,1,0-.31C-62.4-7.22-50.62-7.35-43.2-2c-3-4.32-7.07-7.49-14.29-8.48a.26.26,0,0,1-.22-.23.25.25,0,0,1,.16-.26c8.29-3.08,16.6,0,23.45,8.21a26.37,26.37,0,0,0-14.77-14,.26.26,0,0,1-.16-.28.25.25,0,0,1,.24-.21c4-.08,7.49.86,12.27,3.57C-40-19.36-39.24-29.36-34.13-36a.26.26,0,0,1,.3-.08.26.26,0,0,1,.15.28c-1.18,7.2,1.3,15.33,5.61,19.64a18.18,18.18,0,0,1,5.89-19.64.27.27,0,0,1,.26,0,.25.25,0,0,1,.16.21c1.24,9.41,11.77,19,20.6,19.77a.24.24,0,0,1,.23.24.25.25,0,0,1-.19.26,20.76,20.76,0,0,1-12.39-1A22,22,0,0,0-4-10.12a.25.25,0,0,1,.18.27A.25.25,0,0,1-4-9.63a20.4,20.4,0,0,1-12.74-3.54A31.49,31.49,0,0,0,2.68.34a.27.27,0,0,1,.2.26.24.24,0,0,1-.23.24C-9.26,2.14-19.09-2.48-25.57-11.08c1.65,4.9,6.37,9.76,13,12.62,5.84,2.55,11.85,3,16.42,1.51a.25.25,0,0,1,.28.1A.24.24,0,0,1,4.07,3.45Zm-52.9-75.57c4.81,10.49,4.46,18.69.59,29a.25.25,0,0,1-.29.16.24.24,0,0,1-.2-.26C-48.11-55.84-51.56-64.87-59-71c8.25,9.85,4.35,29.56-8.82,29.56-9.59,0-17.52-8-19.46-17.53a.28.28,0,0,1,.16-.29.24.24,0,0,1,.31.11c2.84,4.76,7.41,7.85,12.46,7.85,8.13,0,10.54-6.47,10.54-11,0-6.18-4.93-11.34-8.71-11.34a4.93,4.93,0,0,0-5,4.86v.07a8.87,8.87,0,0,0,6.38,8.16.26.26,0,0,1,.18.28.26.26,0,0,1-.25.22,10.45,10.45,0,0,1-9.63-5.57,17.25,17.25,0,0,0,.64,7.72.26.26,0,0,1-.13.3.25.25,0,0,1-.32-.07c-7.35-9.39-3.83-25.62,2-32.35C-84.21-86-89.09-77.41-89-65.65a.24.24,0,0,1-.2.25.24.24,0,0,1-.28-.15c-4.11-10.26-1.93-29.25,9.28-39.86a20.17,20.17,0,0,0-9.13.7.27.27,0,0,1-.3-.12.26.26,0,0,1,.06-.32c4.09-3.46,9.82-4.54,15.27-4.54-4.7,5.5-3.14,16.55,4.35,16.55,5.35,0,7.78-8.3,3.65-12.78a.26.26,0,0,1,0-.31.26.26,0,0,1,.3-.1c4.78,1.65,10,5.79,10,11,0,5-4.82,9.39-11.8,9,8.81,2.5,18-.27,22.88-6.26a.25.25,0,0,1,.31-.06.27.27,0,0,1,.13.29c-2.79,10.71-12,15.2-23.44,13.7,9.28,3.76,23.25.48,29.42-7.31a.26.26,0,0,1,.31-.07.24.24,0,0,1,.14.28c-1.51,6.69-5,11.64-10.76,13.59Z"/><path class="cls-3" d="M-22.45-52.83a.25.25,0,0,0-.24-.21c-12.91-.14-24.76-3.27-34-11.52,8,5.56,23,7.51,31.53,3.62a.25.25,0,0,0,.14-.29.26.26,0,0,0-.25-.19c-10.68.29-19.28-3-26-9,6.87-.42,12.58-4.74,12.56-9.84a.26.26,0,0,0-.2-.25.26.26,0,0,0-.28.15c-1.12,2.48-4.75,3.78-8.59,2.88-4.18-1-7-4.19-6.3-7.17.47-2,2.44-3.4,4.95-3.79a.25.25,0,0,0,.22-.25.25.25,0,0,0-.23-.25,16.74,16.74,0,0,0-3.32,0c-6.49.62-11.51,4.6-11.94,9.18-4.72-.55-8.89-3.16-10.38-6.77a.28.28,0,0,0-.28-.16.27.27,0,0,0-.21.23c-.38,4.75,1.26,7.84,5,10.86a21.85,21.85,0,0,0-17.26.53.28.28,0,0,0-.14.29.27.27,0,0,0,.24.2A16.22,16.22,0,0,1-75.7-69.51c-18.25-5.13-33.09,6.2-27.95,23.05a.24.24,0,0,0,.26.18.26.26,0,0,0,.23-.23c.92-9.71,7.7-16.11,17.86-17.07A17.45,17.45,0,0,0-96.85-48a.25.25,0,0,0,.19.26.25.25,0,0,0,.29-.14,16.76,16.76,0,0,1,14.16-9.81c-6.33,2.58-10.4,8.6-11.57,16.42a.25.25,0,0,0,.17.28.26.26,0,0,0,.31-.13C-89.44-48.75-81.15-54-70.85-50c10.61,4.11,15.27,16.39,16.3,25a.27.27,0,0,0,.24.23.27.27,0,0,0,.26-.2c3.72-15.69-3.59-31.95-16.64-38.84,7.1,2,13.44,6.26,17,13.35,8.29,1,14,3.87,16.86,9.24a.24.24,0,0,0,.29.13.26.26,0,0,0,.18-.27c-.18-2.11-.94-6.33-4.07-8.27,7,0,12.5-.89,17.8-3A.26.26,0,0,0-22.45-52.83ZM-51.93.64a.23.23,0,0,1,.31,0,.27.27,0,0,1,0,.32c-1.62,2.79-.14,6.81,3,6.81C-42.9,7.77-40.15-3-41-12.82c-2.16,5.75-4,8-7.34,10.79a.26.26,0,0,1-.33,0,.25.25,0,0,1-.06-.31,46.52,46.52,0,0,0,5.9-24.09c-1.47,6-3.2,9.32-8.13,14.38a.24.24,0,0,1-.32,0,.24.24,0,0,1-.09-.31,44.27,44.27,0,0,0,.95-34.26.26.26,0,0,1,.06-.29.28.28,0,0,1,.28,0c5.21,2.55,8.27,4.23,12.75,10.39-1.35,7.4-.22,11.05,3.18,17.19C-38.12-29.24-36-43.22-26-48.92a.26.26,0,0,1,.33.07.26.26,0,0,1,0,.33,17.89,17.89,0,0,0-4.15,17.93C-31.35-41-22.23-49.71-12-49.71c9.6,0,16.15,7.51,15.61,14.94s-5.45,11-9.68,12.5a.26.26,0,0,1-.3-.1.23.23,0,0,1,0-.31C-.8-28.38,0-39.18-10-42.44c5.86,5,3.69,16.82-5.69,17.72a.26.26,0,0,1-.26-.17.26.26,0,0,1,.1-.3A8,8,0,0,0-12-31.75c0-4.67-3.42-6.51-5.67-6.51-3.43,0-6.26,3.25-6.26,8.18,0,5.84,5.26,10.68,12,11.43S.85-20.8,3.82-25.11a.25.25,0,0,1,.34-.08.24.24,0,0,1,.11.29A17.14,17.14,0,0,1-16.54-12.45a17,17,0,0,1-6.11-2.91c6.62,7.5,17,7.6,25.72-.09a.26.26,0,0,1,.33,0,.28.28,0,0,1,.07.32C.8-9.77-5.78-3.36-15.14-4.29c-8.55-.86-13.52-9-14.52-15.69-.56,8.52,1.4,14.53,8.75,20.14a.27.27,0,0,1,.08.32.26.26,0,0,1-.3.13c-6.79-2-12.23-5.43-15-12.54C-36.13-5.77-34,.44-28.6,4.58a.26.26,0,0,1,.07.31.26.26,0,0,1-.3.13C-32.28,4-35,2.53-37-.16c-1.32,11.1-6.53,17.69-12.53,17.69-4.13,0-7.21-3-7.21-7.87A11.34,11.34,0,0,1-51.93.64ZM-151.16-91c3.16-3.91,9.54-5.39,16.43-4a22.72,22.72,0,0,1,1.61-11.49.27.27,0,0,1,.29-.13.25.25,0,0,1,.19.26c-.37,8.76,4.63,15.84,13.45,18.9-6.9-4.75-8.92-14.19-5.63-19.06a.24.24,0,0,1,.3-.09.26.26,0,0,1,.16.28c-.38,2.06.6,4.68,2.71,6.72,2.91,2.82,6.85,3.45,8.81,1.43s1.2-6-1.71-8.76A9.55,9.55,0,0,0-118-109.1a.26.26,0,0,1-.16-.28.25.25,0,0,1,.23-.22c6.38-.55,10.77,3.26,13.51,7.88s7.57,8.41,13.21,7.67a.28.28,0,0,1,.28.17.26.26,0,0,1-.11.3,11.06,11.06,0,0,1-9.87,1c5.8,4.91,14,7.74,21.84,5.23a.29.29,0,0,1,.3.1.26.26,0,0,1,0,.31c-5.91,6.57-17.69,6.7-25.11,1.37,3,4.32,7.07,7.49,14.29,8.48a.26.26,0,0,1,.22.23.25.25,0,0,1-.16.26c-8.29,3.08-16.6,0-23.45-8.21a26.37,26.37,0,0,0,14.77,14,.26.26,0,0,1,.16.28.25.25,0,0,1-.24.21c-4,.08-7.49-.86-12.27-3.57,3.51,5.69,2.74,15.64-2.37,22.26a.26.26,0,0,1-.3.08.26.26,0,0,1-.15-.28c1.18-7.2-1.3-15.33-5.61-19.64a18.18,18.18,0,0,1-5.89,19.64.27.27,0,0,1-.26.05.24.24,0,0,1-.16-.2c-1.24-9.42-11.77-19-20.6-19.78a.24.24,0,0,1-.23-.24.25.25,0,0,1,.19-.26,20.76,20.76,0,0,1,12.39,1,21.85,21.85,0,0,0-9.55-6.25.25.25,0,0,1-.18-.27.25.25,0,0,1,.24-.22,20.44,20.44,0,0,1,12.7,3.59,31.44,31.44,0,0,0-19.43-13.51.27.27,0,0,1-.2-.26.28.28,0,0,1,.23-.24c11.92-1.3,21.74,3.32,28.22,11.92-1.65-4.9-6.37-9.76-13-12.62-5.84-2.54-11.85-3-16.42-1.51a.25.25,0,0,1-.28-.1A.24.24,0,0,1-151.16-91Zm52.9,75.57c-4.8-10.49-4.46-18.68-.59-29a.25.25,0,0,1,.29-.16.24.24,0,0,1,.2.26c-.62,12.62,2.83,21.65,10.3,27.8-8.25-9.85-4.35-29.56,8.82-29.56,9.59,0,17.52,8,19.46,17.53a.26.26,0,0,1-.16.29.24.24,0,0,1-.31-.11c-2.84-4.76-7.41-7.85-12.46-7.85-8.13,0-10.54,6.46-10.54,11,0,6.18,4.93,11.34,8.71,11.34a4.93,4.93,0,0,0,5-4.86v-.07A8.88,8.88,0,0,0-75.91-27a.24.24,0,0,1-.18-.28.25.25,0,0,1,.25-.22,10.46,10.46,0,0,1,9.62,5.57,17.25,17.25,0,0,0-.64-7.72.26.26,0,0,1,.13-.3.25.25,0,0,1,.32.07c7.35,9.39,3.83,25.62-2,32.35,5.53-4,10.41-12.63,10.34-24.39a.25.25,0,0,1,.2-.25.27.27,0,0,1,.29.15c4.1,10.26,1.92,29.25-9.29,39.86a20.17,20.17,0,0,0,9.13-.7.27.27,0,0,1,.3.12.26.26,0,0,1-.06.32c-4.09,3.45-9.82,4.54-15.27,4.54,4.7-5.5,3.14-16.55-4.35-16.55-5.35,0-7.78,8.3-3.65,12.78a.26.26,0,0,1,0,.31.26.26,0,0,1-.3.1c-4.78-1.66-10-5.79-10-11,0-5,4.82-9.39,11.81-9C-88.08-3.75-97.32-1-102.15,5a.25.25,0,0,1-.31.06.27.27,0,0,1-.13-.29c2.79-10.71,12-15.2,23.44-13.7-9.28-3.76-23.25-.49-29.42,7.31a.26.26,0,0,1-.31.07.27.27,0,0,1-.14-.28C-107.51-8.51-104-13.45-98.26-15.41Z"/><path class="cls-2" d="M73.78,75a.27.27,0,0,0,.25.2c12.91.14,24.75,3.27,34,11.52-8-5.56-22.94-7.51-31.53-3.62a.25.25,0,0,0,.12.48c10.68-.29,19.28,3,26,9C95.7,92.92,90,97.24,90,102.34a.28.28,0,0,0,.21.25.27.27,0,0,0,.28-.14c1.12-2.49,4.75-3.78,8.58-2.88,4.18,1,7,4.19,6.3,7.16-.47,2-2.43,3.41-5,3.79a.26.26,0,0,0-.22.26.28.28,0,0,0,.23.24,16.74,16.74,0,0,0,3.32,0c6.49-.62,11.52-4.6,12-9.18,4.71.55,8.89,3.16,10.38,6.78a.26.26,0,0,0,.28.15.27.27,0,0,0,.21-.23c.38-4.75-1.26-7.84-5-10.86a21.82,21.82,0,0,0,17.25-.53.26.26,0,0,0,.15-.28.28.28,0,0,0-.24-.21A16.22,16.22,0,0,1,127,91.59c18.25,5.14,33.08-6.2,28-23a.26.26,0,0,0-.27-.18.26.26,0,0,0-.23.23c-.91,9.71-7.7,16.12-17.86,17.08A17.47,17.47,0,0,0,148.2,70.13a.25.25,0,0,0-.22-.27.25.25,0,0,0-.26.15,16.74,16.74,0,0,1-14.17,9.81c6.34-2.58,10.4-8.6,11.58-16.42a.27.27,0,0,0-.18-.28.25.25,0,0,0-.3.13c-3.87,7.58-12.16,12.79-22.45,8.81-10.62-4.11-15.27-16.39-16.3-25a.27.27,0,0,0-.24-.22.25.25,0,0,0-.26.19c-3.73,15.61,3.6,31.91,16.6,38.8-7.1-2-13.44-6.26-17-13.35-8.3-1-14-3.86-16.86-9.24a.26.26,0,0,0-.3-.13.27.27,0,0,0-.18.27c.19,2.11.94,6.33,4.08,8.27-7,0-12.51.89-17.8,3A.29.29,0,0,0,73.78,75Zm29.49-53.48a.23.23,0,0,1-.31,0,.26.26,0,0,1,0-.31c1.62-2.8.14-6.82-3-6.82-5.72,0-8.47,10.77-7.6,20.6,2.17-5.76,4-8.06,7.35-10.8a.24.24,0,0,1,.32,0,.25.25,0,0,1,.07.32,46.48,46.48,0,0,0-5.9,24.08c1.46-6,3.19-9.32,8.13-14.38a.24.24,0,0,1,.32,0,.25.25,0,0,1,.09.31,44.21,44.21,0,0,0-1,34.27.24.24,0,0,1-.06.28.26.26,0,0,1-.29,0c-5.2-2.55-8.26-4.23-12.75-10.39,1.36-7.4.23-11-3.17-17.19,3.94,9.91,1.84,23.89-8.19,29.59A.25.25,0,0,1,77,71a.26.26,0,0,1,0-.33,17.92,17.92,0,0,0,4.12-18C82.61,63,73.48,71.76,63.3,71.76c-9.6,0-16.15-7.51-15.61-14.94s5.44-11,9.67-12.5a.25.25,0,0,1,.3.1.27.27,0,0,1,0,.32C52,50.48,51.25,61.28,61.21,64.55c-5.86-5.06-3.69-16.83,5.69-17.73a.26.26,0,0,1,.27.17.28.28,0,0,1-.11.3,8,8,0,0,0-3.68,6.57c0,4.68,3.43,6.51,5.68,6.51,3.42,0,6.26-3.25,6.26-8.18,0-5.84-5.26-10.68-12-11.43s-12.78,2.15-15.75,6.46a.25.25,0,0,1-.45-.21A17.14,17.14,0,0,1,74,37.5c-6.61-7.5-17-7.6-25.72.09a.27.27,0,0,1-.32,0,.24.24,0,0,1-.07-.31c2.66-5.41,9.25-11.82,18.6-10.89C75,27.26,80,35.42,81,42.09c.55-8.52-1.4-14.53-8.76-20.14a.25.25,0,0,1-.07-.32.26.26,0,0,1,.3-.13c6.78,2,12.23,5.43,15,12.55,0-6.16-2.09-12.41-7.47-16.51a.26.26,0,0,1,0-.37.24.24,0,0,1,.24-.08c3.46,1,6.17,2.49,8.14,5.19,1.31-11.1,6.52-17.7,12.53-17.7,4.12,0,7.2,3,7.2,7.88A11.37,11.37,0,0,1,103.27,21.47Zm99.23,91.62c-3.16,3.91-9.54,5.4-16.43,4a22.83,22.83,0,0,1-1.61,11.49.26.26,0,0,1-.49-.12c.38-8.82-4.62-15.82-13.45-18.92,6.91,4.75,8.93,14.19,5.64,19.06a.27.27,0,0,1-.31.1.26.26,0,0,1-.15-.28c.37-2.06-.61-4.69-2.71-6.73-2.91-2.81-6.85-3.45-8.81-1.43s-1.2,6,1.7,8.76a9.71,9.71,0,0,0,3.45,2.19.25.25,0,0,1,.17.27.26.26,0,0,1-.23.22c-6.39.55-10.77-3.25-13.52-7.88s-7.57-8.41-13.21-7.67a.24.24,0,0,1-.27-.17.26.26,0,0,1,.11-.3,11.06,11.06,0,0,1,9.86-1c-5.79-4.91-14-7.74-21.84-5.23a.24.24,0,0,1-.29-.1.26.26,0,0,1,0-.31c5.89-6.61,17.72-6.74,25.14-1.4-3-4.32-7.07-7.49-14.3-8.48a.28.28,0,0,1-.22-.22.26.26,0,0,1,.17-.27c8.29-3.08,16.6,0,23.44,8.22a26.35,26.35,0,0,0-14.76-14,.25.25,0,0,1-.17-.28.26.26,0,0,1,.25-.21c3.94-.08,7.48.86,12.26,3.57-3.5-5.69-2.74-15.64,2.37-22.26a.26.26,0,0,1,.31-.07.25.25,0,0,1,.14.27c-1.18,7.2,1.3,15.33,5.61,19.64a18.18,18.18,0,0,1,5.9-19.64.3.3,0,0,1,.26,0,.31.31,0,0,1,.16.21c1.23,9.42,11.77,19,20.6,19.77a.27.27,0,0,1,.23.24.24.24,0,0,1-.2.26,20.76,20.76,0,0,1-12.39-1,21.74,21.74,0,0,0,9.56,6.25.24.24,0,0,1,.17.27.25.25,0,0,1-.23.22,20.36,20.36,0,0,1-12.73-3.54A31.41,31.41,0,0,0,201.11,110a.25.25,0,0,1,.19.26.24.24,0,0,1-.22.24c-11.92,1.3-21.75-3.32-28.22-11.92,1.65,4.9,6.36,9.76,12.94,12.62,5.85,2.55,11.85,2.95,16.42,1.51a.27.27,0,0,1,.29.1A.26.26,0,0,1,202.5,113.09ZM149.59,37.52c4.81,10.49,4.47,18.69.6,29.06a.28.28,0,0,1-.29.16.26.26,0,0,1-.2-.27c.62-12.62-2.83-21.65-10.3-27.8,8.25,9.85,4.35,29.56-8.83,29.56-9.58,0-17.51-8-19.45-17.53a.24.24,0,0,1,.16-.28.27.27,0,0,1,.31.1c2.84,4.76,7.4,7.85,12.45,7.85,8.14,0,10.54-6.46,10.54-11,0-6.19-4.92-11.35-8.7-11.35a4.94,4.94,0,0,0-5,4.88V41a8.86,8.86,0,0,0,6.37,8.16.26.26,0,0,1,.18.28.25.25,0,0,1-.25.22A10.45,10.45,0,0,1,117.55,44a17.45,17.45,0,0,0,.64,7.73.23.23,0,0,1-.12.29.26.26,0,0,1-.32-.06c-7.36-9.4-3.84-25.63,2-32.36-5.53,4-10.42,12.63-10.34,24.39a.26.26,0,0,1-.21.25.24.24,0,0,1-.28-.15C104.81,33.88,107,14.88,118.2,4.28a20,20,0,0,0-9.12.69.27.27,0,0,1-.3-.12.25.25,0,0,1,.06-.32C112.93,1.08,118.65,0,124.1,0c-4.69,5.5-3.13,16.55,4.36,16.55,5.35,0,7.77-8.29,3.64-12.78a.26.26,0,0,1,0-.31.29.29,0,0,1,.3-.1c4.78,1.66,9.94,5.79,9.94,11,0,5-4.81,9.39-11.8,9,8.82,2.5,18-.27,22.88-6.25a.24.24,0,0,1,.31-.07.25.25,0,0,1,.14.29c-2.8,10.72-12,15.2-23.44,13.71,9.28,3.75,23.25.48,29.42-7.31a.25.25,0,0,1,.31-.08.27.27,0,0,1,.14.28C158.85,30.64,155.35,35.57,149.59,37.52Z"/><path class="cls-3" d="M176,56.81a.26.26,0,0,0-.25-.21c-12.91-.13-24.75-3.27-34-11.51,8,5.55,22.94,7.51,31.53,3.62a.25.25,0,0,0,.14-.29.27.27,0,0,0-.26-.2c-10.68.29-19.28-3-26-9,6.87-.43,12.57-4.74,12.56-9.85a.28.28,0,0,0-.21-.25.26.26,0,0,0-.28.15c-1.12,2.49-4.75,3.78-8.58,2.88-4.18-1-7-4.19-6.3-7.17.47-2,2.43-3.4,5-3.79a.24.24,0,0,0,.22-.25.25.25,0,0,0-.23-.25,18.41,18.41,0,0,0-3.32,0c-6.49.62-11.51,4.6-12,9.18-4.71-.54-8.88-3.16-10.38-6.77a.25.25,0,0,0-.27-.16.27.27,0,0,0-.22.24c-.37,4.75,1.26,7.83,5,10.85a21.74,21.74,0,0,0-17.3.61.26.26,0,0,0-.15.28.27.27,0,0,0,.25.2,16.27,16.27,0,0,1,11.73,5.07c-18.26-5.13-33.09,6.2-28,23.05a.26.26,0,0,0,.27.18.26.26,0,0,0,.23-.23c.91-9.71,7.7-16.11,17.86-17.07a17.44,17.44,0,0,0-11.52,15.52.27.27,0,0,0,.19.27.29.29,0,0,0,.3-.15A16.74,16.74,0,0,1,116.22,52c-6.34,2.58-10.4,8.6-11.57,16.42a.25.25,0,0,0,.17.28.24.24,0,0,0,.3-.13c3.88-7.6,12.16-12.81,22.45-8.88,10.62,4.11,15.27,16.39,16.3,25a.25.25,0,0,0,.5,0c3.72-15.69-3.58-32-16.63-38.84,7.09,2,13.44,6.26,17,13.36,8.3,1,14,3.86,16.86,9.24a.27.27,0,0,0,.3.12.26.26,0,0,0,.18-.26c-.18-2.11-.94-6.33-4.08-8.28a45.86,45.86,0,0,0,17.8-3A.27.27,0,0,0,176,56.81Zm-29.51,53.47a.23.23,0,0,1,.32.32c-1.62,2.79-.14,6.81,3.05,6.81,5.72,0,8.47-10.77,7.6-20.59-2.16,5.75-4,8-7.35,10.79a.24.24,0,0,1-.32,0,.22.22,0,0,1-.06-.31,46.63,46.63,0,0,0,5.89-24.09c-1.46,6-3.19,9.32-8.12,14.38a.26.26,0,0,1-.33,0,.25.25,0,0,1-.09-.31A44.23,44.23,0,0,0,148,63a.26.26,0,0,1,.35-.33c5.2,2.55,8.26,4.23,12.75,10.39-1.36,7.4-.23,11,3.17,17.2-3.94-9.92-1.84-23.9,8.19-29.59a.24.24,0,0,1,.32.06.26.26,0,0,1,0,.33A17.93,17.93,0,0,0,168.65,79c-1.53-10.39,7.6-19.11,17.78-19.11,9.6,0,16.15,7.5,15.61,14.94s-5.44,11-9.67,12.49a.25.25,0,0,1-.3-.1.26.26,0,0,1,0-.31c5.61-5.7,6.38-16.5-3.58-19.76,5.86,5,3.69,16.83-5.69,17.72a.24.24,0,0,1-.26-.17.24.24,0,0,1,.1-.29,8.05,8.05,0,0,0,3.68-6.58c0-4.67-3.42-6.51-5.68-6.51-3.42,0-6.26,3.26-6.26,8.18,0,5.84,5.26,10.68,12,11.43s12.78-2.15,15.75-6.45a.25.25,0,0,1,.46.2A17.13,17.13,0,0,1,175.7,94.2c6.61,7.5,17,7.61,25.72-.09a.27.27,0,0,1,.32,0,.25.25,0,0,1,.07.32c-2.66,5.4-9.25,11.82-18.6,10.88-8.56-.85-13.52-9-14.52-15.69-.56,8.52,1.39,14.54,8.75,20.14a.26.26,0,0,1-.23.45c-6.78-2-12.23-5.42-15-12.54,0,6.16,2.13,12.37,7.52,16.51a.25.25,0,0,1-.22.44c-3.45-1-6.17-2.49-8.14-5.18-1.31,11.1-6.52,17.69-12.53,17.69-4.12,0-7.2-3-7.2-7.87A11.4,11.4,0,0,1,146.49,110.28ZM47.26,18.64c3.16-3.9,9.54-5.39,16.43-4A22.56,22.56,0,0,1,65.31,3.16.25.25,0,0,1,65.6,3a.28.28,0,0,1,.19.26C65.42,12,70.41,19.12,79.24,22.19,72.33,17.43,70.31,8,73.6,3.12A.25.25,0,0,1,73.91,3a.26.26,0,0,1,.15.28C73.69,5.37,74.67,8,76.77,10c2.91,2.82,6.85,3.46,8.82,1.43s1.19-5.94-1.71-8.76A9.68,9.68,0,0,0,80.43.52a.26.26,0,0,1-.17-.27A.28.28,0,0,1,80.49,0C86.88-.53,91.26,3.28,94,7.9s7.57,8.41,13.21,7.67a.26.26,0,0,1,.27.17.24.24,0,0,1-.11.3,11,11,0,0,1-9.86,1.06c5.79,4.9,14,7.74,21.84,5.22a.26.26,0,0,1,.32.19.28.28,0,0,1-.05.22c-5.91,6.57-17.7,6.7-25.12,1.38,3,4.31,7.07,7.48,14.3,8.47a.29.29,0,0,1,.22.23.26.26,0,0,1-.17.26c-8.29,3.08-16.6,0-23.44-8.21a26.29,26.29,0,0,0,14.76,14,.25.25,0,0,1,.17.28.26.26,0,0,1-.25.21c-3.94.08-7.48-.86-12.26-3.57,3.5,5.69,2.74,15.64-2.37,22.26a.26.26,0,0,1-.3.08.26.26,0,0,1-.15-.28c1.18-7.2-1.3-15.33-5.61-19.64a18.21,18.21,0,0,1-5.9,19.65.3.3,0,0,1-.42-.2c-1.23-9.42-11.77-19-20.6-19.78a.26.26,0,0,1-.23-.23.26.26,0,0,1,.2-.27,20.76,20.76,0,0,1,12.39,1,21.72,21.72,0,0,0-9.56-6.24.24.24,0,0,1-.17-.27.26.26,0,0,1,.23-.23,20.42,20.42,0,0,1,12.73,3.54,31.43,31.43,0,0,0-19.43-13.4.25.25,0,0,1-.19-.26.27.27,0,0,1,.22-.24C60.6,20,70.43,24.59,76.9,33.19c-1.65-4.9-6.36-9.75-12.9-12.62C58.11,18,52.11,17.64,47.54,19.06a.24.24,0,0,1-.29-.1A.26.26,0,0,1,47.26,18.64Zm52.91,75.57c-4.81-10.48-4.47-18.68-.6-29a.26.26,0,0,1,.5.1c-.63,12.62,2.82,21.65,10.29,27.81-8.25-9.86-4.35-29.56,8.83-29.56,9.58,0,17.51,8,19.45,17.52a.25.25,0,0,1-.46.18c-2.85-4.76-7.41-7.85-12.46-7.85-8.14,0-10.54,6.47-10.54,11,0,6.18,4.92,11.34,8.7,11.34a4.94,4.94,0,0,0,5.05-4.83v-.09a8.88,8.88,0,0,0-6.38-8.14.25.25,0,0,1-.18-.28.26.26,0,0,1,.25-.22,10.48,10.48,0,0,1,9.63,5.57,17.4,17.4,0,0,0-.64-7.72.25.25,0,0,1,.44-.23c7.36,9.39,3.84,25.62-2,32.36,5.53-4,10.42-12.64,10.34-24.4a.25.25,0,0,1,.49-.09c4.11,10.25,1.93,29.24-9.28,39.85a20.27,20.27,0,0,0,9.12-.69.26.26,0,0,1,.3.11.25.25,0,0,1-.06.32c-4.09,3.46-9.81,4.54-15.26,4.54,4.7-5.5,3.14-16.55-4.35-16.55-5.36,0-7.78,8.3-3.65,12.78a.26.26,0,0,1,0,.31.25.25,0,0,1-.3.1c-4.77-1.65-9.94-5.79-9.94-11,0-5.05,4.81-9.4,11.8-9.06-8.82-2.5-18,.27-22.88,6.26a.24.24,0,0,1-.27,0,.23.23,0,0,1-.13-.29c2.79-10.71,12-15.2,23.44-13.71-9.29-3.76-23.25-.48-29.43,7.31a.26.26,0,0,1-.31.07.27.27,0,0,1-.14-.28c1.38-6.61,4.87-11.55,10.63-13.51Z"/><path class="cls-2" d="M-25.43,75a.26.26,0,0,0,.25.2c12.9.14,24.75,3.27,34,11.52-8-5.56-22.94-7.51-31.53-3.62a.25.25,0,0,0-.14.29.23.23,0,0,0,.25.19c10.68-.29,19.28,3,26,9-6.91.39-12.62,4.71-12.6,9.81a.27.27,0,0,0,.2.25.25.25,0,0,0,.29-.14C-7.59,100-4,98.64-.13,99.57c4.18,1,7,4.19,6.3,7.16-.47,2-2.44,3.41-4.95,3.79a.26.26,0,0,0-.22.26.27.27,0,0,0,.23.24,16.74,16.74,0,0,0,3.32,0c6.49-.62,11.51-4.6,12-9.18,4.66.55,8.83,3.16,10.33,6.8a.26.26,0,0,0,.49-.08c.37-4.75-1.26-7.84-5-10.86a21.85,21.85,0,0,0,17.26-.53.25.25,0,0,0,.11-.35.26.26,0,0,0-.21-.14A16.26,16.26,0,0,1,27.8,91.61c18.26,5.14,33.09-6.2,28-23a.26.26,0,0,0-.27-.18.26.26,0,0,0-.23.23c-.92,9.71-7.7,16.12-17.86,17.08A17.48,17.48,0,0,0,49,70.13a.28.28,0,0,0-.19-.26.26.26,0,0,0-.3.14,16.71,16.71,0,0,1-14.16,9.81c6.34-2.58,10.4-8.6,11.57-16.42a.25.25,0,0,0-.17-.28.25.25,0,0,0-.3.13C41.56,70.83,33.27,76,23,72.06,12.36,68,7.7,55.64,6.68,47a.27.27,0,0,0-.24-.22.25.25,0,0,0-.26.19C2.46,62.64,9.76,78.94,22.81,85.83c-7.09-2-13.44-6.26-17-13.35-8.3-1-14-3.86-16.86-9.24a.26.26,0,0,0-.3-.13.27.27,0,0,0-.18.27c.18,2.11.94,6.33,4.07,8.27-7,0-12.5.89-17.79,3A.26.26,0,0,0-25.43,75ZM4.06,21.47a.25.25,0,0,1-.35-.06.26.26,0,0,1,0-.27c1.62-2.8.14-6.82-3.05-6.82-5.72,0-8.47,10.77-7.6,20.6,2.16-5.76,4-8.06,7.35-10.8a.24.24,0,0,1,.32,0,.26.26,0,0,1,.06.32A46.59,46.59,0,0,0-5.11,48.52c1.46-6,3.19-9.32,8.12-14.38a.26.26,0,0,1,.33,0,.25.25,0,0,1,.09.31,44.23,44.23,0,0,0-1,34.19.26.26,0,0,1-.06.28.26.26,0,0,1-.29,0c-5.2-2.46-8.26-4.14-12.75-10.28,1.36-7.4.23-11-3.17-17.19C-9.86,51.34-11.95,65.32-22,71a.26.26,0,0,1-.33-.07.26.26,0,0,1,0-.33,17.92,17.92,0,0,0,4.2-18C-16.6,63-25.73,71.76-35.91,71.76c-9.6,0-16.15-7.51-15.61-14.94s5.44-11,9.67-12.5a.25.25,0,0,1,.3.1.27.27,0,0,1,0,.32C-47.19,50.48-48,61.28-38,64.55c-5.86-5.06-3.69-16.83,5.69-17.73A.24.24,0,0,1-32,47a.25.25,0,0,1-.1.3,8,8,0,0,0-3.68,6.57c0,4.68,3.42,6.51,5.68,6.51,3.42,0,6.26-3.25,6.26-8.18,0-5.84-5.26-10.68-12-11.43s-12.78,2.15-15.75,6.46a.25.25,0,0,1-.32.08A.25.25,0,0,1-52.1,47a17.16,17.16,0,0,1,20.85-12.4,17.3,17.3,0,0,1,6,2.89c-6.61-7.5-17-7.6-25.72.09a.27.27,0,0,1-.32,0,.25.25,0,0,1-.08-.31c2.67-5.41,9.26-11.82,18.61-10.89,8.56.86,13.52,9,14.52,15.69.56-8.52-1.39-14.53-8.75-20.14a.26.26,0,0,1-.05-.3.24.24,0,0,1,.29-.13c6.79,2,12.23,5.43,15.05,12.55,0-6.16-2.14-12.38-7.52-16.51a.27.27,0,0,1-.08-.32.26.26,0,0,1,.3-.13c3.45,1,6.17,2.49,8.14,5.19C-9.51,11.19-4.3,4.59,1.7,4.59c4.13,0,7.21,3,7.21,7.88A11.36,11.36,0,0,1,4.06,21.47Zm99.23,91.62c-3.17,3.91-9.54,5.4-16.44,4a22.72,22.72,0,0,1-1.61,11.49.25.25,0,0,1-.48-.12c.37-8.82-4.62-15.82-13.45-18.92,6.91,4.75,8.92,14.19,5.69,19.1a.27.27,0,0,1-.31.1.26.26,0,0,1-.15-.28c.37-2.06-.61-4.69-2.72-6.73-2.95-2.85-6.9-3.49-8.82-1.47s-1.19,6,1.71,8.76a9.71,9.71,0,0,0,3.45,2.19.26.26,0,0,1,.17.27.26.26,0,0,1-.23.22c-6.39.55-10.77-3.25-13.52-7.88s-7.58-8.41-13.25-7.67a.24.24,0,0,1-.27-.17.24.24,0,0,1,.11-.3,11,11,0,0,1,9.83-1c-5.77-4.92-14-7.75-21.81-5.24a.24.24,0,0,1-.29-.1.26.26,0,0,1,0-.31c5.93-6.56,17.71-6.69,25.1-1.35-3-4.34-7-7.51-14.26-8.5a.28.28,0,0,1-.22-.22.26.26,0,0,1,.17-.27c8.29-3.08,16.6,0,23.44,8.22a26.34,26.34,0,0,0-14.77-14,.25.25,0,0,1,.09-.49c3.94-.08,7.48.86,12.26,3.57C59.2,90.24,60,80.29,65.08,73.64a.25.25,0,0,1,.3-.07.24.24,0,0,1,.15.27c-1.18,7.2,1.3,15.33,5.61,19.64A18.18,18.18,0,0,1,77,73.87a.28.28,0,0,1,.25,0,.3.3,0,0,1,.17.21c1.23,9.42,11.76,19,20.6,19.77a.27.27,0,0,1,.23.24.25.25,0,0,1-.2.26,20.76,20.76,0,0,1-12.39-1,21.74,21.74,0,0,0,9.56,6.25.25.25,0,0,1,.17.31.25.25,0,0,1-.23.18,20.36,20.36,0,0,1-12.73-3.54A31.4,31.4,0,0,0,101.89,110a.25.25,0,0,1,0,.5c-11.87,1.3-21.75-3.32-28.23-11.92,1.65,4.9,6.37,9.76,13,12.62,5.8,2.55,11.8,2.95,16.36,1.46a.27.27,0,0,1,.29.1A.24.24,0,0,1,103.29,113.09ZM50.38,37.52C55.19,48,54.85,56.21,51,66.58a.26.26,0,0,1-.28.16.27.27,0,0,1-.21-.27c.62-12.62-2.82-21.65-10.3-27.8,8.25,9.85,4.36,29.56-8.82,29.56-9.58,0-17.51-8-19.45-17.53a.24.24,0,0,1,.15-.28.24.24,0,0,1,.31.1c2.85,4.76,7.41,7.85,12.46,7.85,8.14,0,10.54-6.46,10.54-11,0-6.19-4.92-11.35-8.71-11.35a5,5,0,0,0-5,4.93A8.86,8.86,0,0,0,28,49.12a.26.26,0,0,1,.18.28.25.25,0,0,1-.25.22,10.45,10.45,0,0,1-9.63-5.57,17.45,17.45,0,0,0,.64,7.73.25.25,0,0,1-.44.23c-7.36-9.4-3.84-25.63,2-32.36-5.56,4-10.44,12.63-10.36,24.39a.26.26,0,0,1-.21.25.24.24,0,0,1-.28-.15C5.54,33.89,7.72,14.89,18.93,4.29A20,20,0,0,0,9.8,5a.23.23,0,0,1-.29-.12.26.26,0,0,1,.05-.32C13.66,1.09,19.38,0,24.83,0c-4.7,5.5-3.14,16.55,4.36,16.55,5.34,0,7.77-8.29,3.64-12.78a.23.23,0,0,1,0-.31.24.24,0,0,1,.29-.1c4.78,1.66,10,5.79,10,11,0,5-4.81,9.39-11.8,9.05,8.82,2.5,18-.27,22.88-6.25a.25.25,0,0,1,.44.22c-2.79,10.72-12,15.2-23.44,13.71,9.28,3.75,23.25.48,29.43-7.31A.25.25,0,0,1,61,24C59.63,30.64,56.14,35.57,50.38,37.52Z"/><path class="cls-3" d="M76.76,56.81a.25.25,0,0,0-.24-.21c-12.91-.13-24.76-3.27-34-11.51,8,5.55,22.94,7.51,31.52,3.62a.26.26,0,0,0-.11-.49c-10.68.29-19.28-3-26-9,6.87-.43,12.57-4.74,12.55-9.85a.25.25,0,0,0-.48-.1c-1.12,2.49-4.75,3.78-8.58,2.88-4.18-1-7-4.19-6.3-7.17.47-2,2.43-3.4,5-3.79a.23.23,0,0,0,.21-.25h0a.25.25,0,0,0-.23-.25,18.3,18.3,0,0,0-3.31,0c-6.49.62-11.52,4.6-12,9.18-4.71-.54-8.89-3.16-10.38-6.77a.25.25,0,0,0-.49.08c-.38,4.75,1.26,7.83,5,10.85a21.76,21.76,0,0,0-17.24.61.27.27,0,0,0-.14.28.28.28,0,0,0,.24.2,16.3,16.3,0,0,1,11.74,5.07c-18.26-5.13-33.09,6.2-28,23.05a.26.26,0,0,0,.27.18A.24.24,0,0,0-4,63.19c1-9.74,7.75-16.14,17.91-17.1A17.46,17.46,0,0,0,2.36,61.64a.27.27,0,0,0,.19.27.27.27,0,0,0,.29-.15A16.76,16.76,0,0,1,17,51.93c-6.33,2.58-10.39,8.6-11.57,16.42a.26.26,0,0,0,.18.29.24.24,0,0,0,.3-.13c3.86-7.59,12.16-12.8,22.45-8.87C39,63.75,43.63,76,44.66,84.64a.25.25,0,1,0,.5,0c3.72-15.69-3.58-32-16.64-38.84,7.1,2,13.44,6.26,17,13.36,8.29,1,14,3.86,16.86,9.24a.27.27,0,0,0,.27.25h.05a.28.28,0,0,0,.19-.26c-.19-2.11-1-6.33-4.08-8.28a45.86,45.86,0,0,0,17.8-3A.24.24,0,0,0,76.76,56.81ZM47.28,110.28a.23.23,0,0,1,.31,0,.27.27,0,0,1,0,.32c-1.62,2.79-.14,6.81,3,6.81,5.72,0,8.47-10.77,7.6-20.59-2.17,5.75-4,8-7.35,10.79a.24.24,0,0,1-.32,0,.24.24,0,0,1-.07-.31,46.52,46.52,0,0,0,5.9-24.09c-1.46,6-3.2,9.32-8.13,14.38a.25.25,0,0,1-.22,0,.25.25,0,0,1-.09-.31,44.18,44.18,0,0,0,1-34.26.24.24,0,0,1,.06-.28.26.26,0,0,1,.29,0C54.46,65.34,57.52,67,62,73.18c-1.36,7.4-.23,11,3.17,17.2-3.94-9.92-1.84-23.9,8.19-29.59a.24.24,0,0,1,.32.06.26.26,0,0,1,0,.33,17.89,17.89,0,0,0-4.16,17.93C67.94,68.64,77.06,60,87.25,60c9.6,0,16.15,7.5,15.61,14.94s-5.45,11-9.67,12.49a.25.25,0,0,1-.3-.1.23.23,0,0,1,0-.31c5.61-5.7,6.38-16.5-3.58-19.76,5.86,5,3.69,16.83-5.69,17.72a.26.26,0,0,1-.27-.17.24.24,0,0,1,.11-.29,8.08,8.08,0,0,0,3.67-6.58c0-4.67-3.42-6.51-5.67-6.51-3.42,0-6.26,3.26-6.26,8.18,0,5.84,5.26,10.68,12,11.43S100,88.84,103,84.54a.24.24,0,0,1,.31-.09.25.25,0,0,1,.14.29,17.13,17.13,0,0,1-26.89,9.51c6.62,7.5,17,7.61,25.73-.09a.27.27,0,0,1,.32,0,.25.25,0,0,1,.07.32c-2.68,5.39-9.25,11.81-18.6,10.87-8.56-.85-13.52-9-14.53-15.69C69,98.18,71,104.2,78.31,109.8a.28.28,0,0,1,.07.32.25.25,0,0,1-.3.13c-6.78-2-12.23-5.42-15-12.54-.08,6.16,2.09,12.37,7.48,16.51a.24.24,0,0,1,.07.31.24.24,0,0,1-.29.11c-3.46-1-6.18-2.47-8.14-5.16-1.31,11.1-6.52,17.69-12.53,17.69-4.12,0-7.2-3-7.2-7.87A11.39,11.39,0,0,1,47.28,110.28ZM-51.95,18.64c3.16-3.9,9.54-5.39,16.43-4A22.78,22.78,0,0,1-33.91,3.16.25.25,0,0,1-33.62,3a.27.27,0,0,1,.2.26C-33.8,12.07-28.8,19.15-20,22.22-26.91,17.46-28.93,8-25.64,3.15a.24.24,0,0,1,.3-.09.26.26,0,0,1,.16.28c-.37,2.06.6,4.68,2.71,6.72,2.91,2.82,6.85,3.46,8.81,1.43s1.2-5.94-1.7-8.76A9.82,9.82,0,0,0-18.81.55.25.25,0,0,1-19,.28a.26.26,0,0,1,.23-.23C-12.36-.5-8,3.31-5.24,7.93S2.36,16.34,8,15.64a.26.26,0,0,1,.27.17.26.26,0,0,1-.11.3A11,11,0,0,1-1.7,17.17c5.79,4.9,14,7.74,21.84,5.22a.26.26,0,0,1,.29.11.24.24,0,0,1,0,.3C14.5,29.33,2.72,29.46-4.7,24.14c3,4.31,7.07,7.5,14.3,8.5a.27.27,0,0,1,.21.23.24.24,0,0,1-.16.26c-8.29,3.08-16.6,0-23.45-8.21A26.36,26.36,0,0,0,1,38.9a.24.24,0,0,1,.16.28.25.25,0,0,1-.24.21c-3.94.08-7.49-.86-12.27-3.57,3.51,5.69,2.74,15.64-2.36,22.26a.28.28,0,0,1-.31.08.26.26,0,0,1-.15-.28c1.17-7.24-1.32-15.33-5.64-19.64A18.16,18.16,0,0,1-25.7,57.89a.3.3,0,0,1-.26,0,.24.24,0,0,1-.16-.2c-1.23-9.42-11.77-19-20.6-19.78a.26.26,0,0,1-.23-.23.25.25,0,0,1,.2-.27,20.74,20.74,0,0,1,12.38,1,21.75,21.75,0,0,0-9.55-6.24.26.26,0,0,1-.18-.27.28.28,0,0,1,.24-.23,20.42,20.42,0,0,1,12.73,3.54A31.39,31.39,0,0,0-50.56,21.77a.27.27,0,0,1-.2-.26.29.29,0,0,1,.23-.24c11.92-1.3,21.75,3.32,28.22,11.92-1.65-4.9-6.36-9.75-12.94-12.62C-41.1,18-47.1,17.64-51.68,19.06A.24.24,0,0,1-52,19,.26.26,0,0,1-51.95,18.64ZM1,94.23c-4.85-10.48-4.51-18.68-.64-29A.25.25,0,0,1,.65,65a.24.24,0,0,1,.2.26C.23,77.9,3.68,86.93,11.15,93.09,2.9,83.23,6.8,63.53,20,63.53c9.59,0,17.52,8,19.46,17.52a.25.25,0,0,1-.16.29.25.25,0,0,1-.31-.11c-2.84-4.76-7.4-7.85-12.45-7.85-8.14,0-10.55,6.47-10.55,11,0,6.18,4.93,11.34,8.71,11.34a4.93,4.93,0,0,0,5-4.86V90.8a8.87,8.87,0,0,0-6.36-8.16.25.25,0,0,1-.18-.28.26.26,0,0,1,.25-.22A10.51,10.51,0,0,1,33,87.7,17.4,17.4,0,0,0,32.36,80a.24.24,0,0,1,.12-.3.25.25,0,0,1,.32.07c7.36,9.39,3.83,25.62-2,32.36,5.53-4,10.42-12.64,10.34-24.4a.25.25,0,0,1,.2-.25.26.26,0,0,1,.29.16c4.11,10.25,1.93,29.24-9.28,39.85a20.27,20.27,0,0,0,9.12-.69.26.26,0,0,1,.3.11.25.25,0,0,1-.06.32c-4,3.43-9.71,4.54-15.2,4.54,4.69-5.5,3.13-16.55-4.36-16.55-5.35,0-7.78,8.3-3.65,12.78a.27.27,0,0,1-.3.41c-4.75-1.65-9.91-5.75-9.91-11,0-5,4.81-9.4,11.8-9.06-8.82-2.5-18.09.27-22.88,6.26a.25.25,0,0,1-.31.06.25.25,0,0,1-.14-.29c2.79-10.71,12-15.2,23.44-13.71C10.92,96.89-3,100.17-9.22,108a.26.26,0,0,1-.31.07.27.27,0,0,1-.14-.28C-8.3,101.13-4.81,96.19,1,94.23Z"/><path class="cls-2" d="M-124.64,75a.25.25,0,0,0,.25.2c12.9.14,24.75,3.27,34,11.52-8-5.56-23-7.51-31.53-3.62a.25.25,0,0,0-.14.29.23.23,0,0,0,.25.19c10.68-.29,19.28,3,26,9-6.87.42-12.58,4.74-12.56,9.84a.26.26,0,0,0,.2.25.24.24,0,0,0,.28-.14c1.12-2.49,4.75-3.78,8.59-2.88,4.18,1,7,4.19,6.3,7.16-.51,2-2.48,3.38-5,3.76a.26.26,0,0,0-.22.26A.25.25,0,0,0-98,111a16.74,16.74,0,0,0,3.32,0c6.49-.62,11.51-4.6,12-9.18,4.68.55,8.85,3.16,10.34,6.8a.26.26,0,0,0,.28.15.25.25,0,0,0,.21-.23c.38-4.75-1.25-7.84-5-10.86a21.85,21.85,0,0,0,17.26-.53.27.27,0,0,0,.14-.28.26.26,0,0,0-.24-.21,16.22,16.22,0,0,1-11.73-5.07c18.25,5.14,33.09-6.2,28-23a.24.24,0,0,0-.26-.18.26.26,0,0,0-.23.23c-.92,9.71-7.7,16.12-17.86,17.08A17.45,17.45,0,0,0-50.24,70.13a.25.25,0,0,0-.19-.26.25.25,0,0,0-.29.14,16.76,16.76,0,0,1-14.16,9.81c6.33-2.58,10.4-8.6,11.57-16.42a.25.25,0,0,0-.17-.28.26.26,0,0,0-.31.13C-57.65,70.83-65.94,76-76.23,72.06c-10.62-4.11-15.28-16.39-16.31-25a.24.24,0,0,0-.24-.22A.25.25,0,0,0-93,47c-3.72,15.61,3.59,31.91,16.64,38.8-7.1-2-13.44-6.26-17-13.35-8.29-1-14-3.86-16.85-9.24a.26.26,0,0,0-.3-.13.26.26,0,0,0-.18.27c.18,2.11.94,6.33,4.07,8.27-7,0-12.5.89-17.8,3A.27.27,0,0,0-124.64,75Zm29.49-53.48a.27.27,0,0,1-.32,0,.26.26,0,0,1,0-.31c1.62-2.8.14-6.82-3-6.82-5.72,0-8.47,10.77-7.59,20.6,2.16-5.76,4-8.06,7.35-10.8a.24.24,0,0,1,.32,0,.26.26,0,0,1,.06.32,46.48,46.48,0,0,0-5.9,24.08c1.47-6,3.2-9.32,8.13-14.38a.26.26,0,0,1,.33,0,.25.25,0,0,1,.08.31,44.23,44.23,0,0,0-1,34.17.25.25,0,0,1-.07.28.24.24,0,0,1-.28,0c-5.21-2.55-8.27-4.23-12.75-10.39,1.35-7.4.22-11-3.18-17.19,3.94,9.91,1.85,23.89-8.18,29.59a.26.26,0,0,1-.33-.07.26.26,0,0,1,0-.33,17.89,17.89,0,0,0,4.17-17.89c1.53,10.39-7.59,19.12-17.78,19.12-9.59,0-16.15-7.51-15.6-14.94a13.82,13.82,0,0,1,9.67-12.5.26.26,0,0,1,.3.1.27.27,0,0,1,0,.32c-5.61,5.69-6.37,16.49,3.59,19.76-5.86-5.06-3.69-16.83,5.69-17.73a.26.26,0,0,1,.26.17.25.25,0,0,1-.1.3A8,8,0,0,0-135,53.86c0,4.68,3.42,6.51,5.67,6.51,3.43,0,6.26-3.25,6.26-8.18,0-5.84-5.26-10.68-12-11.43s-12.78,2.15-15.75,6.46a.24.24,0,0,1-.31.08.25.25,0,0,1-.14-.29,17.16,17.16,0,0,1,20.85-12.4,17.3,17.3,0,0,1,6,2.89c-6.62-7.5-17-7.6-25.72.09a.26.26,0,0,1-.33,0,.26.26,0,0,1-.07-.31c2.67-5.41,9.25-11.82,18.61-10.89,8.55.86,13.52,9,14.52,15.69.56-8.52-1.39-14.53-8.75-20.14a.27.27,0,0,1-.08-.32.26.26,0,0,1,.3-.13c6.79,2,12.23,5.43,15,12.55,0-6.16-2.14-12.38-7.53-16.51a.28.28,0,0,1-.07-.32.26.26,0,0,1,.3-.13c3.45,1,6.17,2.49,8.14,5.19,1.31-11.1,6.52-17.7,12.52-17.7,4.13,0,7.21,3,7.21,7.88A11.33,11.33,0,0,1-95.15,21.47ZM4.07,113.09c-3.16,3.91-9.54,5.4-16.43,4A22.68,22.68,0,0,1-14,128.57a.25.25,0,0,1-.29.14.25.25,0,0,1-.19-.26c.4-8.81-4.6-15.81-13.42-18.91,6.9,4.75,8.9,14.19,5.64,19.1a.27.27,0,0,1-.31.1.28.28,0,0,1-.16-.28c.38-2.06-.6-4.69-2.71-6.73-2.91-2.81-6.85-3.45-8.81-1.43s-1.2,6,1.71,8.76a9.71,9.71,0,0,0,3.45,2.19.24.24,0,0,1,.16.27.25.25,0,0,1-.23.22c-6.38.55-10.77-3.25-13.51-7.88s-7.57-8.41-13.21-7.67a.25.25,0,0,1-.28-.17.27.27,0,0,1,.12-.36l0,0a11.08,11.08,0,0,1,9.87-1c-5.87-4.92-14.1-7.75-21.87-5.24a.24.24,0,0,1-.29-.1.26.26,0,0,1,0-.31c5.91-6.56,17.69-6.69,25.11-1.35-3-4.32-7.07-7.49-14.29-8.48a.24.24,0,0,1-.22-.22.24.24,0,0,1,.16-.27c8.29-3.08,16.6,0,23.45,8.22a26.34,26.34,0,0,0-14.77-14,.26.26,0,0,1-.16-.28.25.25,0,0,1,.24-.21c4-.08,7.49.86,12.27,3.57-3.5-5.73-2.74-15.68,2.37-22.33a.25.25,0,0,1,.3-.07.24.24,0,0,1,.15.27c-1.18,7.2,1.3,15.33,5.61,19.64a18.18,18.18,0,0,1,5.89-19.64.3.3,0,0,1,.26,0,.26.26,0,0,1,.16.21c1.24,9.42,11.77,19,20.6,19.77a.24.24,0,0,1,.23.24.25.25,0,0,1-.19.26,20.76,20.76,0,0,1-12.39-1A21.83,21.83,0,0,0-4,99.52a.25.25,0,0,1,.18.27A.26.26,0,0,1-4,100a20.4,20.4,0,0,1-12.74-3.54A31.49,31.49,0,0,0,2.68,110a.27.27,0,0,1,.2.26.24.24,0,0,1-.23.24c-11.91,1.3-21.74-3.32-28.22-11.92,1.65,4.9,6.37,9.76,13,12.62,5.79,2.55,11.8,2.95,16.37,1.46a.25.25,0,0,1,.28.1.25.25,0,0,1,0,.34Zm-52.9-75.57C-44,48-44.37,56.21-48.24,66.58a.26.26,0,0,1-.29.16.26.26,0,0,1-.2-.27c.62-12.62-2.83-21.65-10.27-27.83,8.25,9.85,4.35,29.56-8.82,29.56-9.59,0-17.52-8-19.46-17.53a.26.26,0,0,1,.16-.28.24.24,0,0,1,.31.1c2.84,4.76,7.41,7.85,12.46,7.85,8.13,0,10.54-6.46,10.54-11,0-6.19-4.93-11.35-8.71-11.35a4.94,4.94,0,0,0-5,4.88v.05a8.86,8.86,0,0,0,6.38,8.16.26.26,0,0,1,.18.28.26.26,0,0,1-.25.22A10.45,10.45,0,0,1-80.84,44a17.31,17.31,0,0,0,.64,7.73.24.24,0,0,1-.13.29.26.26,0,0,1-.32-.06c-7.35-9.4-3.83-25.63,2-32.36C-84.18,23.61-89.06,32.24-89,44a.24.24,0,0,1-.2.25.24.24,0,0,1-.28-.15c-4.11-10.25-1.93-29.25,9.28-39.85a20,20,0,0,0-9.13.69.27.27,0,0,1-.3-.12.26.26,0,0,1,.06-.32C-85.47,1.05-79.74,0-74.29,0c-4.7,5.5-3.14,16.55,4.35,16.55,5.35,0,7.78-8.29,3.65-12.78a.26.26,0,0,1,0-.31.29.29,0,0,1,.3-.1c4.78,1.66,10,5.79,10,11,0,5-4.82,9.39-11.8,9.05,8.81,2.5,18-.27,22.88-6.25a.24.24,0,0,1,.31-.07.27.27,0,0,1,.13.29c-2.79,10.72-12,15.2-23.44,13.71,9.28,3.75,23.25.48,29.42-7.31a.25.25,0,0,1,.31-.08.24.24,0,0,1,.14.28C-39.58,30.64-43.07,35.57-48.83,37.52Z"/><path class="cls-3" d="M-22.45,56.81a.25.25,0,0,0-.24-.21c-12.91-.13-24.76-3.27-34-11.51,8,5.55,23,7.51,31.53,3.62a.25.25,0,0,0,.14-.29.25.25,0,0,0-.25-.2c-10.68.29-19.28-3-26-9,6.87-.43,12.58-4.74,12.56-9.85a.26.26,0,0,0-.2-.25.26.26,0,0,0-.28.15c-1.12,2.49-4.75,3.78-8.59,2.88-4.18-1-7-4.19-6.3-7.17.47-2,2.44-3.4,4.95-3.79a.24.24,0,0,0,.22-.25.25.25,0,0,0-.23-.25,18.41,18.41,0,0,0-3.32,0c-6.49.62-11.51,4.6-11.94,9.18-4.72-.54-8.89-3.16-10.38-6.77a.28.28,0,0,0-.28-.16.28.28,0,0,0-.21.24C-75.65,27.93-74,31-70.27,34a21.81,21.81,0,0,0-17.26.61.27.27,0,0,0-.14.28.25.25,0,0,0,.24.2,16.26,16.26,0,0,1,11.73,5c-18.25-5.13-33.09,6.2-27.95,23.05a.24.24,0,0,0,.26.18.26.26,0,0,0,.23-.23c.92-9.71,7.7-16.11,17.86-17.07A17.45,17.45,0,0,0-96.85,61.64a.27.27,0,0,0,.19.27.27.27,0,0,0,.29-.15A16.76,16.76,0,0,1-82.21,52c-6.33,2.58-10.4,8.6-11.57,16.42a.25.25,0,0,0,.17.28.25.25,0,0,0,.31-.13c3.86-7.58,12.15-12.79,22.45-8.81,10.61,4.11,15.27,16.39,16.3,25a.24.24,0,0,0,.24.23.27.27,0,0,0,.26-.2c3.72-15.69-3.59-32-16.64-38.84,7.1,2,13.44,6.26,17,13.36,8.29,1,14,3.86,16.86,9.24a.26.26,0,0,0,.29.12.25.25,0,0,0,.18-.26c-.18-2.11-.94-6.33-4.07-8.28a45.86,45.86,0,0,0,17.8-3A.25.25,0,0,0-22.45,56.81Zm-29.48,53.47a.23.23,0,0,1,.31,0,.27.27,0,0,1,0,.32c-1.62,2.79-.14,6.81,3,6.81,5.82,0,8.62-10.77,7.69-20.57-2.16,5.75-4,8-7.34,10.79a.26.26,0,0,1-.33,0,.25.25,0,0,1-.06-.31,46.52,46.52,0,0,0,5.9-24.09c-1.47,6-3.2,9.32-8.13,14.38a.22.22,0,0,1-.32,0,.24.24,0,0,1-.09-.31A44.27,44.27,0,0,0-50.35,63a.24.24,0,0,1,.06-.28.24.24,0,0,1,.28,0c5.21,2.55,8.27,4.23,12.75,10.39-1.35,7.4-.22,11,3.18,17.2C-38,80.41-35.93,66.43-25.9,60.74a.25.25,0,0,1,.33.06.26.26,0,0,1,0,.33,17.89,17.89,0,0,0-4.15,17.93C-31.27,68.64-22.15,60-12,60c9.6,0,16.15,7.5,15.61,14.94S-1.8,85.86-6,87.38a.26.26,0,0,1-.3-.1.23.23,0,0,1,0-.31c5.61-5.7,6.37-16.5-3.59-19.76C-4,72.21-6.2,84-15.58,84.93a.26.26,0,0,1-.26-.17.24.24,0,0,1,.1-.29A8,8,0,0,0-12,77.89c0-4.67-3.42-6.51-5.67-6.51-3.48,0-6.33,3.26-6.33,8.18C-24,85.4-18.74,90.24-12,91S.82,88.84,3.79,84.54a.24.24,0,0,1,.31-.09.25.25,0,0,1,.14.29A17.14,17.14,0,0,1-16.58,97.15a17.12,17.12,0,0,1-6.07-2.9c6.62,7.5,17,7.61,25.72-.09a.26.26,0,0,1,.33,0,.28.28,0,0,1,.07.32C.8,99.87-5.78,106.29-15.14,105.35c-8.55-.85-13.52-9-14.52-15.69-.56,8.52,1.4,14.54,8.75,20.14a.27.27,0,0,1,.08.32.25.25,0,0,1-.3.13c-6.79-2-12.23-5.42-15-12.54,0,6.16,2.14,12.37,7.53,16.51a.26.26,0,0,1,.07.31.25.25,0,0,1-.3.13c-3.5-1-6.17-2.49-8.17-5.18-1.32,11.1-6.53,17.69-12.53,17.69-4.13,0-7.21-3-7.21-7.87A11.35,11.35,0,0,1-51.93,110.28Zm-99.23-91.64c3.16-3.9,9.54-5.39,16.43-4a22.67,22.67,0,0,1,1.61-11.48.25.25,0,0,1,.29-.14.25.25,0,0,1,.19.26C-133,12-128,19.12-119.19,22.19c-6.9-4.76-8.92-14.2-5.63-19.07a.24.24,0,0,1,.3-.09.26.26,0,0,1,.16.28c-.38,2.06.6,4.68,2.71,6.72,2.91,2.82,6.85,3.46,8.81,1.43s1.2-5.94-1.71-8.76A9.68,9.68,0,0,0-118,.52a.24.24,0,0,1-.16-.27.26.26,0,0,1,.23-.23c6.38-.55,10.77,3.26,13.51,7.88s7.57,8.44,13.21,7.74a.28.28,0,0,1,.28.17.26.26,0,0,1-.11.3,11,11,0,0,1-9.87,1.06c5.8,4.9,14,7.74,21.84,5.22a.28.28,0,0,1,.3.11.24.24,0,0,1,0,.3c-5.91,6.57-17.69,6.7-25.11,1.38,3,4.31,7.07,7.48,14.29,8.47a.26.26,0,0,1,.22.23.25.25,0,0,1-.16.26c-8.29,3.08-16.6,0-23.45-8.21a26.34,26.34,0,0,0,14.77,14,.26.26,0,0,1,.16.28.25.25,0,0,1-.24.21c-4,.08-7.49-.86-12.27-3.57,3.51,5.69,2.74,15.64-2.37,22.26a.26.26,0,0,1-.3.08.26.26,0,0,1-.15-.28c1.18-7.2-1.3-15.33-5.61-19.64a18.19,18.19,0,0,1-5.89,19.65.3.3,0,0,1-.26,0,.24.24,0,0,1-.16-.2c-1.24-9.42-11.77-19-20.6-19.78a.26.26,0,0,1-.23-.23.26.26,0,0,1,.19-.27,20.76,20.76,0,0,1,12.39,1,21.75,21.75,0,0,0-9.55-6.24.26.26,0,0,1-.18-.27.24.24,0,0,1,.24-.23,20.42,20.42,0,0,1,12.73,3.54,31.44,31.44,0,0,0-19.43-13.51.27.27,0,0,1-.2-.26.28.28,0,0,1,.23-.24c11.92-1.3,21.74,3.32,28.22,11.92-1.65-4.9-6.37-9.75-13-12.62-5.84-2.54-11.85-2.94-16.42-1.51a.24.24,0,0,1-.28-.1A.24.24,0,0,1-151.16,18.64Zm52.9,75.57c-4.8-10.48-4.46-18.68-.59-29a.25.25,0,0,1,.29-.16.24.24,0,0,1,.2.26c-.62,12.62,2.83,21.65,10.3,27.81-8.25-9.86-4.35-29.56,8.82-29.56,9.59,0,17.52,8,19.46,17.52a.26.26,0,0,1-.16.29.24.24,0,0,1-.31-.11c-2.84-4.76-7.41-7.85-12.46-7.85-8.13,0-10.54,6.47-10.54,11,0,6.18,4.93,11.34,8.71,11.34a4.93,4.93,0,0,0,5-4.86v-.06a8.9,8.9,0,0,0-6.33-8.14.24.24,0,0,1-.18-.28.25.25,0,0,1,.25-.22,10.48,10.48,0,0,1,9.62,5.57A17.4,17.4,0,0,0-66.82,80a.26.26,0,0,1,.13-.3.25.25,0,0,1,.32.07c7.35,9.39,3.83,25.62-2,32.36,5.53-4,10.41-12.64,10.34-24.4a.25.25,0,0,1,.2-.25.26.26,0,0,1,.29.16c4.1,10.25,1.92,29.24-9.29,39.85a20.16,20.16,0,0,0,9.13-.69.26.26,0,0,1,.3.11.26.26,0,0,1-.06.32c-4.09,3.46-9.82,4.54-15.27,4.54,4.7-5.5,3.14-16.55-4.35-16.55-5.35,0-7.78,8.3-3.65,12.78a.26.26,0,0,1,0,.31.26.26,0,0,1-.3.1c-4.78-1.65-10-5.79-10-11,0-5.05,4.82-9.4,11.81-9.06-8.82-2.5-18.06.27-22.89,6.26a.25.25,0,0,1-.31.06.27.27,0,0,1-.13-.29c2.89-10.73,12.07-15.22,23.55-13.73-9.28-3.76-23.25-.48-29.42,7.31a.26.26,0,0,1-.31.07.27.27,0,0,1-.14-.28c1.36-6.61,4.87-11.55,10.61-13.51Z"/></pattern></defs><g id="Layer_2" data-name="Layer 2"><g id="Layer_1-2" data-name="Layer 1"><g id="Layer_2-2" data-name="Layer 2"><g id="Layer_1-2-2" data-name="Layer 1-2"><g class="cls-4"><text class="cls-5" transform="translate(90.5 43.88)">OUR MEN</text><text class="cls-6" transform="translate(314.33 43.88)">T</text><text class="cls-5" transform="translate(338.78 43.88)">ORS</text></g></g></g><line class="cls-7" y1="26" x2="67.14" y2="26"/><polygon class="cls-8" points="65.16 28.91 76 26 65.16 23.1 65.16 28.91"/></g></g></svg>